<?xml version="1.0" encoding="UTF-8" standalone="no"?>
<!-- Created with Inkscape (http://www.inkscape.org/) -->

<svg width="256" height="256" viewBox="0 0 256 256" version="1.1" id="svg12" inkscape:version="1.2 (dc2aeda, 2022-05-15)" xml:space="preserve" sodipodi:docname="leomard.inkscape.svg" inkscape:export-filename="leomard.png" inkscape:export-xdpi="96" inkscape:export-ydpi="96" xmlns:inkscape="http://www.inkscape.org/namespaces/inkscape" xmlns:sodipodi="http://sodipodi.sourceforge.net/DTD/sodipodi-0.dtd" xmlns="http://www.w3.org/2000/svg" xmlns:svg="http://www.w3.org/2000/svg" xmlns:rdf="http://www.w3.org/1999/02/22-rdf-syntax-ns#" xmlns:cc="http://creativecommons.org/ns#" xmlns:dc="http://purl.org/dc/elements/1.1/"><title id="title3804">Leomard Logo</title><sodipodi:namedview id="namedview14" pagecolor="#505050" bordercolor="#ffffff" borderopacity="1" inkscape:pageshadow="0" inkscape:pageopacity="0" inkscape:pagecheckerboard="1" inkscape:deskcolor="#505050" inkscape:document-units="px" showgrid="false" inkscape:showpageshadow="0" showguides="true" inkscape:current-layer="layer1" /><defs id="defs9" /><g inkscape:groupmode="layer" id="layer1" inkscape:label="Layer 1"><path id="white-border" style="color:#000000;fill:none;stroke:#ffffff;stroke-width:7;stroke-linecap:round;stroke-linejoin:round" d="m 46.042969,51.203125 c -6.708936,0.03384 -11.473236,2.174013 -14.40625,3.941406 -6.077336,3.662118 -9.540872,7.984881 -10.470703,12.71875 -0.929832,4.73387 0.630399,9.184554 2.703125,13.228516 4.14545,8.087923 10.420642,15.731241 10.99414,21.863283 0.461275,4.93209 2.696865,8.79678 5.695313,11.25781 2.998447,2.46103 6.563691,3.61123 9.878906,4.17383 0.862042,0.14629 1.712419,0.24917 2.544922,0.32422 -0.511122,3.45697 -0.791016,7.11417 -0.791016,10.99609 0,17.84078 5.987672,30.97596 14.527344,40.52149 -0.449063,1.9e-4 -0.875834,-0.009 -1.333984,-0.004 -10.346306,0.11914 -23.012064,1.4314 -32.634766,7.27344 -1.652711,1.00305 -2.179164,3.15608 -1.175781,4.80859 1.003047,1.65271 3.156087,2.17917 4.808593,1.17578 7.596534,-4.61192 19.330956,-6.14552 29.082032,-6.25781 3.421525,-0.0394 6.395136,0.0946 9.05664,0.26172 1.80973,1.41327 3.662197,2.73623 5.560547,3.92773 0.241393,3.34839 0.718188,7.09858 1.56836,10.9336 -0.215977,0.0352 -0.423553,0.0582 -0.640625,0.0957 -4.454723,0.77029 -9.168975,2.03025 -13.345704,4.26562 -4.176727,2.23539 -7.917147,5.58532 -9.652343,10.38868 -0.656534,1.81756 0.284243,3.82326 2.101562,4.48046 1.818133,0.65783 3.825238,-0.28319 4.482422,-2.10156 1.003259,-2.7772 3.193272,-4.89389 6.373047,-6.5957 3.179775,-1.70182 7.247701,-2.85004 11.232422,-3.53906 0.464403,-0.0803 0.915606,-0.13447 1.375,-0.20313 0.02743,0.0771 0.04836,0.15548 0.07617,0.23242 2.599627,7.19094 7.073551,14.17489 14.652344,17.92579 7.327614,3.62659 17.177904,3.83151 29.695314,-0.63086 12.51741,4.46237 22.3677,4.25745 29.69531,0.63086 7.57879,-3.7509 12.05271,-10.73485 14.65235,-17.92579 0.0278,-0.0769 0.0487,-0.15537 0.0762,-0.23242 0.45939,0.0687 0.9106,0.12282 1.375,0.20313 3.98471,0.68902 8.05264,1.83724 11.23242,3.53906 3.17978,1.70181 5.36979,3.8185 6.37305,6.5957 0.65718,1.81836 2.66429,2.75939 4.48242,2.10156 1.81732,-0.6572 2.75809,-2.6629 2.10156,-4.48046 -1.7352,-4.80336 -5.47562,-8.15329 -9.65234,-10.38868 -4.17673,-2.23537 -8.89098,-3.49533 -13.34571,-4.26562 -0.21707,-0.0375 -0.42464,-0.0605 -0.64062,-0.0957 0.85017,-3.83502 1.32697,-7.58521 1.56836,-10.9336 1.89835,-1.1915 3.75082,-2.51446 5.56055,-3.92773 2.6615,-0.16712 5.63511,-0.30112 9.05664,-0.26172 9.75107,0.11229 21.4855,1.64589 29.08203,6.25781 1.65251,1.00338 3.80554,0.47693 4.80859,-1.17578 1.00338,-1.65251 0.47693,-3.80554 -1.17578,-4.80859 -9.6227,-5.84204 -22.28846,-7.1543 -32.63477,-7.27344 -0.45815,-0.005 -0.88492,0.004 -1.33398,0.004 8.53967,-9.54553 14.52734,-22.68071 14.52734,-40.52149 0,-3.88192 -0.27989,-7.53912 -0.79101,-10.99609 0.8325,-0.075 1.68288,-0.17793 2.54492,-0.32422 3.31522,-0.5626 6.88046,-1.7128 9.87891,-4.17383 2.99844,-2.46103 5.23403,-6.32572 5.69531,-11.25781 0.5735,-6.132042 6.84868,-13.775359 10.99414,-21.863283 2.07273,-4.043962 3.63296,-8.494645 2.70312,-13.228516 -0.92982,-4.733869 -4.39336,-9.056632 -10.4707,-12.71875 -2.93301,-1.767393 -7.69732,-3.907569 -14.40625,-3.941406 -2.23631,-0.01128 -4.68832,0.210974 -7.36133,0.759766 -9.22579,1.894135 -21.09737,7.432942 -36.7539,19.660156 -0.0977,-0.04296 -0.19528,-0.09425 -0.29297,-0.136719 -18.85937,-8.198919 -37.54883,-8.148437 -37.54883,-8.148437 0,0 -18.68945,-0.05048 -37.54883,8.148437 -0.09769,0.04247 -0.195249,0.09376 -0.292969,0.136719 -15.656535,-12.227214 -27.528112,-17.766021 -36.753906,-19.660156 -2.673002,-0.548792 -5.125016,-0.771045 -7.361328,-0.759766 z" sodipodi:nodetypes="csssssscscccccsccccscccssccscssccscccsscccscccscscsssssssscccscssc" inkscape:label="white-border" /><g id="whiskers" inkscape:label="whiskers"><path style="fill:none;stroke:#000000;stroke-width:7;stroke-linecap:round;stroke-linejoin:round" d="m 97.799568,194.86943 c 0,0 -31.019381,-1.74332 -36.496302,13.41784" id="path813" /><path style="fill:none;stroke:#000000;stroke-width:7;stroke-linecap:round;stroke-linejoin:round" d="m 83.370036,174.80024 c 0,0 -31.58521,-4.76413 -48.804479,5.68985" id="path1410" sodipodi:nodetypes="cc" /><path style="fill:none;stroke:#000000;stroke-width:7;stroke-linecap:round;stroke-linejoin:round" d="m 158.20043,194.86943 c 0,0 31.01938,-1.74332 36.4963,13.41784" id="path1500" /><path style="fill:none;stroke:#000000;stroke-width:7;stroke-linecap:round;stroke-linejoin:round" d="m 172.62996,174.80024 c 0,0 31.58521,-4.76413 48.80448,5.68985" id="path1502" sodipodi:nodetypes="cc" /></g><path id="head" style="fill:#ffffff;stroke:#000000;stroke-width:7;stroke-linecap:round;stroke-linejoin:round" d="m 200.30801,129.70752 c 0,61.6001 -72.30801,61.6001 -72.30801,61.6001 0,0 -72.308012,0 -72.308012,-61.6001 0,-62.87032 72.308012,-62.870323 72.308012,-62.870323 0,0 72.30801,3e-6 72.30801,62.870323 z" sodipodi:nodetypes="scscs" inkscape:label="head" /><g id="ears"><path style="fill:#ffffff;stroke:#000000;stroke-width:7;stroke-linecap:round;stroke-linejoin:round" d="m 62.539013,114.85975 c 0,0 -22.645844,4.28315 -24.190357,-12.23129 -1.478021,-15.803478 -27.191625,-31.055892 -4.904971,-44.485516 7.067604,-4.258839 23.557476,-10.561801 62.177602,22.454077" id="path1268" sodipodi:nodetypes="cssc" /><path style="fill:#000000;stroke-width:7;stroke-linecap:round;stroke-linejoin:round" d="m 77.096481,97.294008 c -4.446496,8.558292 -23.743783,9.871092 -26.278073,-3.861728 -2.952471,-15.998863 -20.314217,-35.327504 9.571236,-21.114795 16.577569,7.883842 21.834127,15.10789 16.706837,24.976523 z" id="path1293" sodipodi:nodetypes="ssss" /><path style="fill:#ffffff;stroke:#000000;stroke-width:7;stroke-linecap:round;stroke-linejoin:round" d="m 193.46099,114.85975 c 0,0 22.64584,4.28315 24.19035,-12.23129 1.47802,-15.803479 27.19163,-31.055893 4.90497,-44.485517 -7.0676,-4.258839 -23.55747,-10.561801 -62.1776,22.454077" id="path626" sodipodi:nodetypes="cssc" /><path style="fill:#000000;stroke-width:7;stroke-linecap:round;stroke-linejoin:round" d="m 178.90352,97.294007 c 4.44649,8.558293 23.74378,9.871093 26.27807,-3.861728 2.95247,-15.998863 20.31422,-35.327504 -9.57123,-21.114795 -16.57757,7.883842 -21.83413,15.10789 -16.70684,24.976523 z" id="path628" sodipodi:nodetypes="ssss" /></g><g id="muzzle" inkscape:label="muzzle"><path id="mouth" style="fill:#ffffff;stroke:#000000;stroke-width:7;stroke-linecap:round;stroke-linejoin:round" class="UnoptimicedTransforms" transform="matrix(-1,0,0,1,256,0)" d="m 83.576929,169.12476 c 0,0 -5.831512,62.85119 44.423071,43.89834 50.25458,18.95285 44.42307,-43.89834 44.42307,-43.89834" sodipodi:nodetypes="ccc" inkscape:label="mouth" /><path id="nose" style="fill:#000000;stroke-width:0.999999;paint-order:stroke fill markers" d="m 110.17575,186.4324 c 0,-6.30688 8.64213,-8.03161 17.82425,-8.03161 9.18212,0 17.82425,1.72473 17.82425,8.03161 0,3.77935 -10.10027,12.8811 -17.82425,12.8811 -7.72398,0 -17.82425,-9.10175 -17.82425,-12.8811 z" sodipodi:nodetypes="scscs" inkscape:label="nose" /><g id="whisker-beds" inkscape:label="whisker-beds"><circle style="fill:#000000;stroke-width:7;stroke-linecap:round;stroke-linejoin:round" id="path1524" cx="100.76877" cy="181.42542" r="3.5" /><circle style="fill:#000000;stroke-width:7;stroke-linecap:round;stroke-linejoin:round" id="circle1526" cx="97.799568" cy="194.80849" r="3.5" /><circle style="fill:#000000;stroke-width:7;stroke-linecap:round;stroke-linejoin:round" id="circle1528" cx="109.45874" cy="202.81351" r="3.5" /><circle style="fill:#000000;stroke-width:7;stroke-linecap:round;stroke-linejoin:round" id="circle670" cx="-155.23123" cy="181.42542" r="3.5" transform="scale(-1,1)" /><circle style="fill:#000000;stroke-width:7;stroke-linecap:round;stroke-linejoin:round" id="circle672" cx="-158.20044" cy="194.80849" r="3.5" transform="scale(-1,1)" /><circle style="fill:#000000;stroke-width:7;stroke-linecap:round;stroke-linejoin:round" id="circle674" cx="-146.54126" cy="202.81351" r="3.5" transform="scale(-1,1)" /></g></g><path id="spots" style="fill:#000000;stroke-width:7;stroke-linecap:round;stroke-linejoin:round" inkscape:label="spots" d="m 165.75839,161.3308 c -2.51318,-1.3826 -0.99385,-2.92431 -4.97715,-1.0422 -3.98328,1.8821 -6.15226,1.633 -6.18408,0.52991 -0.0318,-1.1031 -4.03182,0.16841 -2.39296,2.32651 1.63886,2.15811 4.85139,-2.1275 3.80515,0.61484 -1.04623,2.74234 3.23096,1.6637 3.98924,0.36163 0.75227,-1.29174 4.53497,3.39705 4.60281,2.21919 0.15642,-2.7155 -2.06337,-4.53433 -4.14523,-4.01942 -2.08186,0.51491 1.1768,-1.69202 1.97116,-1.53388 0.79435,0.15813 0.27348,0.13353 1.42655,1.38296 1.15306,1.24943 2.72302,2.79898 2.41462,1.49413 -0.3084,-1.30486 0.36982,-1.84958 -0.51011,-2.33367 z m 23.0599,-15.92572 c -3.20517,-1.43865 -3.74734,-2.93287 -6.08357,-2.29796 -4.68126,1.27222 1.49647,1.87959 -0.6234,4.74786 -2.11987,2.86827 -4.06058,2.25533 -3.79273,4.68663 0.34221,3.10635 -6.21487,8.11093 -1.91202,7.31876 4.30285,-0.79217 5.23278,-9.08419 6.62555,-6.41147 1.39277,2.67273 4.00435,-0.66998 3.41636,-3.82955 -0.64295,-3.45484 4.35655,-3.32252 2.36981,-4.21427 z m 0.99334,-18.10066 c -3.52741,-0.69247 -1.72044,-4.9247 -4.29755,-1.74099 -1.53718,1.89899 -5.49119,3.96742 -3.84213,5.47684 1.64906,1.50943 5.40069,-3.09399 4.68063,-0.23726 -0.58186,2.30846 -6.40193,4.5712 -3.73621,4.11447 2.66572,-0.45674 5.37384,-0.16963 5.37384,2.37347 0,2.54311 3.15533,-0.23154 2.28426,-3.69855 -0.80161,-3.1905 5.52658,-5.11219 -0.46284,-6.28798 z m -42.65545,-50.084028 c -3.58191,-0.805763 -1.27668,-2.378074 -5.54514,-1.499671 -3.85874,0.794086 -1.65985,-1.639273 -3.74166,-1.769805 -2.08182,-0.130533 -5.09452,2.796401 -3.23939,2.850875 1.85513,0.05447 -1.97473,3.219356 1.46847,2.113534 3.4432,-1.105823 5.54961,4.047311 6.27679,1.722089 0.72718,-2.325222 2.74557,-2.099481 3.1473,-1.219087 0.73993,1.621566 2.06119,4.286661 3.60286,2.925797 1.54168,-1.360864 5.4269,-2.412226 2.90367,-2.730981 -5.12347,-0.64724 -2.68662,-1.900941 -4.8729,-2.392751 z m 1.86503,13.236513 c 0.54759,2.44269 -1.11019,0.817922 -2.35126,1.244714 -1.82517,0.627653 -6.22643,0.682266 -3.34269,-1.20591 1.71139,-1.120561 5.59508,-2.716202 2.09856,-2.416797 -3.49651,0.299406 -3.24168,0.239712 -4.51959,0.953735 -1.27791,0.714023 0.35787,-0.886031 -1.47542,-2.544693 -1.83328,-1.658663 2.02484,-2.664535 4.8503,-2.011588 0.94745,0.218949 1.48026,1.628178 3.78527,1.17445 1.83465,-0.361139 3.98674,-0.164289 2.68961,1.531398 -1.29712,1.695687 -2.07951,1.736901 -1.73478,3.274691 z m -17.14298,-1.268493 c -0.61963,2.55421 -0.95006,3.615745 -1.75293,3.336914 -0.80287,-0.278832 -2.08836,-0.809054 -1.30261,-2.673476 0.78576,-1.864422 2.60658,0.2302 1.72263,-1.706133 -0.88395,-1.936332 1.5922,-1.827917 0.26719,-2.65076 -1.32501,-0.822844 1.2638,-1.28171 -0.25301,-2.266997 -1.51681,-0.985286 -2.5595,-0.907426 -2.5595,-0.907426 v -2.177728 c 0,0 2.09186,0.02221 2.30219,-0.399394 0.33269,-0.666893 2.99438,0.188104 3.00869,1.170383 0.0143,0.982282 0.33481,2.760044 1.18789,2.146404 0.85307,-0.613639 1.38287,1.914537 0.14709,3.897753 -1.23578,1.983215 -2.148,-0.323751 -2.76763,2.23046 z m 7.62245,4.760936 c -2.48594,4.172259 -0.78851,8.536482 -2.40212,7.491352 -1.65744,-1.07351 -0.49445,-3.290876 -3.16094,-2.869093 -2.66649,0.421784 -1.91109,-0.815912 -1.64457,-3.199197 0.26651,-2.383286 1.24041,-4.710476 1.88993,-3.478344 0.64951,1.232132 1.35007,3.671405 0.12959,4.03461 -1.22048,0.363205 0.1709,1.787936 1.23948,1.442858 1.06858,-0.345079 1.77877,-3.438169 1.14134,-3.086161 -1.49015,0.822907 -0.67888,-2.866512 0.83072,-2.41473 1.15434,0.345461 3.09834,0.196001 1.97657,2.078705 z m -11.50068,5.335939 c 1.99824,0 1.74139,1.421993 4.62303,1.638263 1.10864,0.0832 0.0341,3.76221 -0.78585,2.52111 -0.81993,-1.2411 -1.12418,-2.40629 -2.48056,-1.96578 -1.0132,0.32906 -1.35662,0.33117 -1.35662,0.33117 m 0,20.0293 c 3.0992,0 4.81795,0.69048 3.2641,1.22896 -3.2641,1.13115 2.45535,1.11284 0.72898,2.17765 -1.17677,0.72582 -1.25686,5.00503 -2.3715,2.91941 -0.63632,-1.19063 -1.62158,-1.17097 -1.62158,-1.17097 m 10.67609,-19.07201 c 3.43517,1.56129 1.65665,3.2805 0.68438,5.77488 -2.09267,5.36879 1.74349,1.84455 1.45084,3.88171 -0.29265,2.03716 -5.01046,4.68354 -4.84692,1.23411 0.16353,-3.44944 -0.83612,-1.92141 -2.10507,-1.64283 -1.26896,0.27857 -4.73108,-0.5758 -3.48217,-2.6302 1.24892,-2.05439 0.42647,-10.64869 2.19229,-7.90833 1.76581,2.74037 2.1107,-0.52551 6.10665,1.29066 z m 7.01543,-12.721941 c 2.02961,2.4762 -0.8333,3.316272 0.66791,4.513358 1.05352,0.840093 0.93148,4.556063 -0.20765,3.436763 -1.13914,-1.11929 -1.41888,-1.01819 -2.53106,0.15382 -1.11219,1.17201 -4.556,-0.59306 -3.237,-2.19902 1.319,-1.60596 3.97156,-7.535189 5.3078,-5.904921 z m 13.89175,8.527141 c 1.76988,-0.31018 2.22481,-0.14383 2.87324,-2.82302 0.64844,-2.679186 3.50989,-8.138563 0.82302,-8.225076 -2.68688,-0.08651 -3.9094,-2.579064 -5.83045,-1.779887 -1.92104,0.799176 -4.86807,-0.668822 -4.49392,0.988473 0.59607,2.640374 -4.34147,4.967889 -1.40037,5.963208 2.2621,0.765533 -0.0456,5.884562 3.54907,2.335802 2.64158,-2.607826 3.18829,-7.403596 4.36635,-5.426538 1.17805,1.977059 -0.0411,3.381581 -1.25695,4.606492 -1.21581,1.224926 -1.14334,4.938076 1.37001,4.360546 z m -1.15719,7.54011 c -0.68663,-2.11451 3.71006,-0.25487 2.49912,-3.15838 -1.21095,-2.90351 7.74503,-2.87373 7.59256,-0.72484 -0.15247,2.1489 -0.11826,4.50366 1.90046,4.31819 2.01872,-0.18547 -3.19772,3.93934 -6.23658,3.4909 -2.77008,-0.40877 -5.04289,-1.73118 -5.75556,-3.92587 z m -5.44726,-6.23311 c 3.56236,4.71854 3.39981,9.27863 -0.0781,9.71325 -3.4779,0.43462 -8.62294,4.98591 -8.22067,1.75115 0.40228,-3.23476 3.3859,-6.30494 0.95017,-7.55129 -2.43574,-1.24636 5.25023,-6.69251 7.3486,-3.91311 z m -62.737214,56.29621 c 2.513185,-1.3826 0.993857,-2.92431 4.977149,-1.0422 3.983286,1.8821 6.152265,1.633 6.184085,0.52991 0.0318,-1.1031 4.03182,0.16841 2.39296,2.32651 -1.63886,2.15811 -4.851389,-2.1275 -3.805149,0.61484 1.046229,2.74234 -3.230958,1.6637 -3.989245,0.36163 -0.752266,-1.29174 -4.534964,3.39705 -4.602812,2.21919 -0.156419,-2.7155 2.063373,-4.53433 4.145235,-4.01942 2.081863,0.51491 -1.176798,-1.69202 -1.971155,-1.53388 -0.794357,0.15813 -0.273483,0.13353 -1.426552,1.38296 -1.153068,1.24943 -2.723026,2.79898 -2.414627,1.49413 0.308399,-1.30486 -0.36982,-1.84958 0.510111,-2.33367 z m -23.059901,-15.92572 c 3.205174,-1.43865 3.747347,-2.93287 6.083572,-2.29796 4.68126,1.27222 -1.496471,1.87959 0.623398,4.74786 2.119869,2.86827 4.06058,2.25533 3.792736,4.68663 -0.342211,3.10635 6.214866,8.11093 1.912019,7.31876 -4.302847,-0.79217 -5.232777,-9.08419 -6.625552,-6.41147 -1.392774,2.67273 -4.004352,-0.66998 -3.416355,-3.82955 0.642947,-3.45484 -4.356555,-3.32252 -2.369818,-4.21427 z m -0.993337,-18.10066 c 3.527406,-0.69247 1.720439,-4.9247 4.297554,-1.74099 1.537175,1.89899 5.491186,3.96742 3.842126,5.47684 -1.64906,1.50943 -5.400687,-3.09399 -4.680633,-0.23726 0.581861,2.30846 6.401929,4.5712 3.736209,4.11447 -2.66572,-0.45674 -5.373832,-0.16963 -5.373832,2.37347 0,2.54311 -3.155336,-0.23154 -2.284259,-3.69855 0.801606,-3.1905 -5.526589,-5.11219 0.462835,-6.28798 z m 42.655452,-50.084028 c 3.58191,-0.805763 1.27668,-2.378074 5.54514,-1.499671 3.85874,0.794086 1.65985,-1.639273 3.74166,-1.769805 2.08182,-0.130533 5.09452,2.796401 3.23939,2.850875 -1.85513,0.05447 1.97473,3.219356 -1.46847,2.113534 -3.4432,-1.105823 -5.54961,4.047311 -6.27679,1.722089 -0.72718,-2.325222 -2.74557,-2.099481 -3.1473,-1.219087 -0.73993,1.621566 -2.06119,4.286661 -3.60286,2.925797 -1.54168,-1.360864 -5.4269,-2.412226 -2.90367,-2.730981 5.12347,-0.64724 2.68662,-1.900941 4.8729,-2.392751 z m -1.86503,13.236513 c -0.54759,2.44269 1.11019,0.817922 2.35126,1.244714 1.82517,0.627653 6.22643,0.682266 3.34269,-1.20591 -1.71139,-1.120561 -5.59508,-2.716202 -2.09856,-2.416797 3.49651,0.299406 3.24168,0.239712 4.51959,0.953735 1.27791,0.714023 -0.35787,-0.886031 1.47542,-2.544693 1.83328,-1.658663 -2.02484,-2.664535 -4.8503,-2.011588 -0.94745,0.218949 -1.48026,1.628178 -3.78527,1.17445 -1.83465,-0.361139 -3.98674,-0.164289 -2.68961,1.531398 1.29712,1.695687 2.07951,1.736901 1.73478,3.274691 z m 17.14298,-1.268493 c 0.61963,2.55421 0.95006,3.615745 1.75293,3.336914 0.80287,-0.278832 2.08836,-0.809054 1.30261,-2.673476 -0.78576,-1.864422 -2.60658,0.2302 -1.72263,-1.706133 0.88395,-1.936332 -1.5922,-1.827917 -0.26719,-2.65076 1.32501,-0.822844 -1.2638,-1.28171 0.25301,-2.266997 1.51681,-0.985286 2.5595,-0.907426 2.5595,-0.907426 v -2.177728 c 0,0 -2.09186,0.02221 -2.30219,-0.399394 -0.33269,-0.666893 -2.99438,0.188104 -3.00869,1.170383 -0.0143,0.982282 -0.33481,2.760044 -1.18789,2.146404 -0.85307,-0.613639 -1.38287,1.914537 -0.14709,3.897753 1.23578,1.983215 2.148,-0.323751 2.76763,2.23046 z m -7.62245,4.760936 c 2.48594,4.172259 0.78851,8.536482 2.40212,7.491352 1.65744,-1.07351 0.49445,-3.290876 3.16094,-2.869093 2.66649,0.421784 1.91109,-0.815912 1.64457,-3.199197 -0.26651,-2.383286 -1.24041,-4.710476 -1.88993,-3.478344 -0.64951,1.232132 -1.35007,3.671405 -0.12959,4.03461 1.22048,0.363205 -0.1709,1.787936 -1.23948,1.442858 -1.06858,-0.345079 -1.77877,-3.438169 -1.14134,-3.086161 1.49015,0.822907 0.67888,-2.866512 -0.83072,-2.41473 -1.15434,0.345461 -3.09834,0.196001 -1.97657,2.078705 z m 11.50068,5.335939 c -1.99824,0 -1.74139,1.421993 -4.62303,1.638263 -1.10864,0.0832 -0.0341,3.76221 0.78585,2.52111 0.81993,-1.2411 1.12418,-2.40629 2.48056,-1.96578 1.0132,0.32906 1.35662,0.33117 1.35662,0.33117 m 0,20.0293 c -3.0992,0 -4.81795,0.69048 -3.2641,1.22896 3.2641,1.13115 -2.45535,1.11284 -0.72898,2.17765 1.17677,0.72582 1.25686,5.00503 2.3715,2.91941 0.63632,-1.19063 1.62158,-1.17097 1.62158,-1.17097 m -10.67609,-19.07201 c -3.43517,1.56129 -1.65665,3.2805 -0.68438,5.77488 2.09267,5.36879 -1.74349,1.84455 -1.45084,3.88171 0.29265,2.03716 5.01046,4.68354 4.84692,1.23411 -0.16353,-3.44944 0.83612,-1.92141 2.10507,-1.64283 1.26896,0.27857 4.73108,-0.5758 3.48217,-2.6302 -1.24892,-2.05439 -0.42647,-10.64869 -2.19229,-7.90833 -1.76581,2.74037 -2.1107,-0.52551 -6.10665,1.29066 z m -7.01543,-12.721941 c -2.02961,2.4762 0.8333,3.316272 -0.66791,4.513358 -1.05352,0.840093 -0.93148,4.556063 0.20765,3.436763 1.13914,-1.11929 1.41888,-1.01819 2.53106,0.15382 1.11219,1.17201 4.556,-0.59306 3.237,-2.19902 -1.319,-1.60596 -3.97156,-7.535189 -5.3078,-5.904921 z m -13.891753,8.527141 c -1.769881,-0.31018 -2.224808,-0.14383 -2.873241,-2.82302 -0.648432,-2.679186 -3.509892,-8.138563 -0.823015,-8.225076 2.686877,-0.08651 3.909403,-2.579064 5.830449,-1.779887 1.92104,0.799176 4.86807,-0.668822 4.49392,0.988473 -0.59607,2.640374 4.34147,4.967889 1.40037,5.963208 -2.2621,0.765533 0.0456,5.884562 -3.54907,2.335802 -2.641578,-2.607826 -3.188289,-7.403596 -4.366347,-5.426538 -1.178058,1.977059 0.04114,3.381581 1.25695,4.606492 1.215807,1.224926 1.143333,4.938076 -1.370016,4.360546 z m 1.157191,7.54011 c 0.686634,-2.11451 -3.710061,-0.25487 -2.499114,-3.15838 1.210948,-2.90351 -7.745038,-2.87373 -7.592568,-0.72484 0.15247,2.1489 0.118263,4.50366 -1.900459,4.31819 -2.018718,-0.18547 3.197721,3.93934 6.236581,3.4909 2.77008,-0.40877 5.042892,-1.73118 5.75556,-3.92587 z m 5.447262,-6.23311 c -3.562363,4.71854 -3.399814,9.27863 0.0781,9.71325 3.4779,0.43462 8.62294,4.98591 8.22067,1.75115 -0.40228,-3.23476 -3.3859,-6.30494 -0.95017,-7.55129 2.43574,-1.24636 -5.25023,-6.69251 -7.3486,-3.91311 z" sodipodi:insensitive="true" /><g id="eyes"><path id="path1458" style="fill:none;stroke:#000000;stroke-width:7;stroke-linecap:round;stroke-linejoin:round" d="m 85.680033,123.04582 c -14.291339,46.21442 32.328067,13.03179 34.536147,39.03312 0,0 1.95553,-25.58688 -8.81303,-34.92915 -10.17555,-8.8278 -33.761931,3.28059 -33.985232,-13.24178" sodipodi:nodetypes="ccsc" /><path id="path1466" style="fill:#000000;stroke-width:6.99998;stroke-linecap:round;stroke-linejoin:round" d="m 103.58925,136.93332 c 0,-4.30239 -3.45215,-7.62905 -3.45215,-7.62905 0,0 -3.452157,3.32666 -3.452157,7.62905 0,4.3024 3.452157,7.62906 3.452157,7.62906 0,0 3.45215,-3.32666 3.45215,-7.62906 z" sodipodi:nodetypes="scscs" /><path id="path533" style="fill:none;stroke:#000000;stroke-width:7;stroke-linecap:round;stroke-linejoin:round" d="m 170.45878,123.04581 c 14.29134,46.21442 -32.32807,13.03179 -34.53615,39.03312 0,0 -1.95553,-25.58688 8.81303,-34.92915 10.17555,-8.8278 33.76193,3.28059 33.98523,-13.24178" sodipodi:nodetypes="ccsc" /><path id="path535" style="fill:#000000;stroke-width:6.99998;stroke-linecap:round;stroke-linejoin:round" d="m 152.54956,136.93331 c 0,-4.30239 3.45215,-7.62905 3.45215,-7.62905 0,0 3.45216,3.32666 3.45216,7.62905 0,4.3024 -3.45216,7.62906 -3.45216,7.62906 0,0 -3.45215,-3.32666 -3.45215,-7.62906 z" sodipodi:nodetypes="scscs" /></g></g><metadata id="metadata3802"><rdf:RDF><cc:Work rdf:about=""><cc:license rdf:resource="http://creativecommons.org/licenses/by-sa/4.0/" /><dc:creator><cc:Agent><dc:title>vintprox</dc:title></cc:Agent></dc:creator><dc:date>2023-07-09</dc:date><dc:title>Leomard Logo</dc:title></cc:Work><cc:License rdf:about="http://creativecommons.org/licenses/by-sa/4.0/"><cc:permits rdf:resource="http://creativecommons.org/ns#Reproduction" /><cc:permits rdf:resource="http://creativecommons.org/ns#Distribution" /><cc:requires rdf:resource="http://creativecommons.org/ns#Notice" /><cc:requires rdf:resource="http://creativecommons.org/ns#Attribution" /><cc:permits rdf:resource="http://creativecommons.org/ns#DerivativeWorks" /><cc:requires rdf:resource="http://creativecommons.org/ns#ShareAlike" /></cc:License></rdf:RDF></metadata></svg>
