<?xml version="1.0" encoding="UTF-8" standalone="no"?>
<!-- Created with Inkscape (http://www.inkscape.org/) -->

<svg width="1024" height="1024" viewBox="0 0 1024 1024" version="1.1" id="svg12" inkscape:version="1.2 (dc2aeda, 2022-05-15)" sodipodi:docname="leomard_macos.inkscape.svg" xmlns:inkscape="http://www.inkscape.org/namespaces/inkscape" xmlns:sodipodi="http://sodipodi.sourceforge.net/DTD/sodipodi-0.dtd" xmlns:xlink="http://www.w3.org/1999/xlink" xmlns="http://www.w3.org/2000/svg" xmlns:svg="http://www.w3.org/2000/svg" xmlns:rdf="http://www.w3.org/1999/02/22-rdf-syntax-ns#" xmlns:cc="http://creativecommons.org/ns#" xmlns:dc="http://purl.org/dc/elements/1.1/">
  <title id="title3853">Leomard macOS Icon</title>
  <sodipodi:namedview id="namedview14" pagecolor="#505050" bordercolor="#ffffff" borderopacity="1" inkscape:pageshadow="0" inkscape:pageopacity="0" inkscape:pagecheckerboard="1" inkscape:deskcolor="#505050" inkscape:document-units="px" showgrid="false" inkscape:showpageshadow="0" inkscape:current-layer="layer1" />
  <defs id="defs9">
    <linearGradient inkscape:collect="always" id="linearGradient3015">
      <stop style="stop-color:#ffea80;stop-opacity:1" offset="0" id="stop3011" />
      <stop style="stop-color:#ff9933;stop-opacity:1" offset="1" id="stop3013" />
    </linearGradient>
    <linearGradient inkscape:collect="always" xlink:href="#linearGradient3015" id="linearGradient3017" x1="512" y1="0" x2="512" y2="1024" gradientUnits="userSpaceOnUse" />
    <filter style="color-interpolation-filters:sRGB" inkscape:label="Drop Shadow" id="filter3453" x="-0.072361694" y="-0.09181696" width="1.1447234" height="1.2132094">
      <feFlood flood-opacity="0.501961" flood-color="rgb(77,38,0)" result="flood" id="feFlood3443" />
      <feComposite in="flood" in2="SourceGraphic" operator="in" result="composite1" id="feComposite3445" />
      <feGaussianBlur in="composite1" stdDeviation="20" result="blur" id="feGaussianBlur3447" />
      <feOffset dx="0" dy="20" result="offset" id="feOffset3449" />
      <feComposite in="SourceGraphic" in2="offset" operator="over" result="composite2" id="feComposite3451" />
    </filter>
  </defs>
  <g inkscape:label="Layer 1" inkscape:groupmode="layer" id="layer1">
    <rect style="fill:url(#linearGradient3017);stroke-width:28;stroke-linecap:round;stroke-linejoin:round" id="background" width="1024" height="1024" x="0" y="0" />
    <g id="leomard" style="filter:url(#filter3453)">
      <path id="white-border" style="color:#000000;fill:none;stroke:#ffffff;stroke-width:28;stroke-linecap:round;stroke-linejoin:round" d="m 184.17189,204.81245 c -26.83576,0.1352 -45.89296,8.69608 -57.625,15.76564 -24.30936,14.64848 -38.163482,31.93952 -41.882802,50.875 -3.71936,18.93548 2.52156,36.73824 10.81248,52.91408 16.581802,32.35168 41.682562,62.92496 43.976562,87.45311 1.84512,19.72836 10.78748,35.18712 22.78124,45.03124 11.9938,9.84412 26.25476,14.44492 39.51564,16.69532 3.44816,0.58516 6.84968,0.99668 10.17968,1.29688 -2.04448,13.82788 -3.16404,28.45668 -3.16404,43.98436 0,71.36312 23.95068,123.90384 58.10936,162.08596 -1.79624,7.6e-4 -3.50332,-0.036 -5.33592,-0.016 -41.38524,0.47656 -92.04828,5.7256 -130.53908,29.09376 -6.61084,4.0122 -8.71664,12.62432 -4.70312,19.23436 4.0122,6.61084 12.62436,8.71668 19.23436,4.70312 30.38616,-18.44768 77.32384,-24.58208 116.32812,-25.03124 13.68612,-0.1576 25.58056,0.3784 36.22656,1.04688 7.23892,5.65308 14.6488,10.94492 22.2422,15.71092 0.96556,13.39356 2.87276,28.39432 6.27344,43.7344 -0.86392,0.1408 -1.6942,0.2328 -2.56248,0.3828 -17.81892,3.08116 -36.67592,8.121 -53.38284,17.06248 -16.70692,8.94156 -31.6686,22.34128 -38.60936,41.55472 -2.62616,7.27024 1.13696,15.29304 8.40624,17.92184 7.27252,2.63132 15.30096,-1.13276 17.92968,-8.40624 4.01304,-11.1088 12.77308,-19.57556 25.4922,-26.3828 12.71912,-6.80728 28.9908,-11.40016 44.92968,-14.15624 1.8576,-0.3212 3.66244,-0.53788 5.5,-0.81252 0.1096,0.3084 0.1936,0.62192 0.3048,0.92968 10.39852,28.76376 28.2942,56.69956 58.6094,71.70316 29.31043,14.50636 68.71159,15.32604 118.78123,-2.52344 50.06964,17.84948 89.4708,17.0298 118.78124,2.52344 30.31516,-15.0036 48.21084,-42.9394 58.6094,-71.70316 0.1112,-0.3076 0.1948,-0.62148 0.3048,-0.92968 1.83756,0.2748 3.6424,0.49128 5.5,0.81252 15.93884,2.75608 32.21056,7.34896 44.92968,14.15624 12.71912,6.80724 21.47916,15.274 25.4922,26.3828 2.62872,7.27344 10.65716,11.03756 17.92968,8.40624 7.26928,-2.6288 11.03236,-10.6516 8.40624,-17.92184 -6.9408,-19.21344 -21.90248,-32.61316 -38.60936,-41.55472 -16.70692,-8.94148 -35.56392,-13.98132 -53.38284,-17.06248 -0.86828,-0.15 -1.69856,-0.242 -2.56248,-0.3828 3.40068,-15.34008 5.30788,-30.34084 6.27344,-43.7344 7.5934,-4.766 15.00328,-10.05784 22.2422,-15.71092 10.646,-0.66848 22.54044,-1.20448 36.22656,-1.04688 39.00428,0.44916 85.942,6.58356 116.32812,25.03124 6.61004,4.01352 15.22216,1.90772 19.23436,-4.70312 4.01352,-6.61004 1.90772,-15.22216 -4.70312,-19.23436 -38.4908,-23.36816 -89.15384,-28.6172 -130.53908,-29.09376 -1.8326,-0.02 -3.53968,0.016 -5.33592,0.016 34.15868,-38.18212 58.10936,-90.72284 58.10936,-162.08596 0,-15.52768 -1.11956,-30.15648 -3.16404,-43.98436 3.33,-0.3 6.73152,-0.71172 10.17968,-1.29688 13.26088,-2.2504 27.52184,-6.8512 39.51564,-16.69532 11.99376,-9.84412 20.93612,-25.30288 22.78124,-45.03124 2.294,-24.52815 27.39472,-55.10143 43.97656,-87.45311 8.29092,-16.17588 14.53184,-33.9786 10.81248,-52.91408 -3.71928,-18.93548 -17.57344,-36.22652 -41.8828,-50.875 -11.73204,-7.06956 -30.78928,-15.63028 -57.625,-15.76564 -8.94524,-0.0452 -18.75328,0.84392 -29.44532,3.03908 -36.90316,7.57656 -84.38948,29.73176 -147.0156,78.64064 -0.3908,-0.172 -0.78112,-0.3768 -1.17188,-0.54688 -75.43748,-32.79568 -150.19532,-32.59376 -150.19532,-32.59376 0,0 -74.7578,-0.202 -150.19531,32.59376 -0.3908,0.17 -0.781,0.3752 -1.17188,0.54688 -62.62612,-48.90888 -110.11244,-71.06408 -147.01564,-78.64064 -10.692,-2.19516 -20.50004,-3.08416 -29.44528,-3.03908 z" sodipodi:nodetypes="csssssscscccccsccccscccssccscssccscccsscccscccscscsssssssscccscssc" inkscape:label="white-border" />
      <g id="whiskers" inkscape:label="whiskers" transform="scale(4)">
        <path style="fill:none;stroke:#000000;stroke-width:7;stroke-linecap:round;stroke-linejoin:round" d="m 97.799568,194.86943 c 0,0 -31.019381,-1.74332 -36.496302,13.41784" id="path813" />
        <path style="fill:none;stroke:#000000;stroke-width:7;stroke-linecap:round;stroke-linejoin:round" d="m 83.370036,174.80024 c 0,0 -31.58521,-4.76413 -48.804479,5.68985" id="path1410" sodipodi:nodetypes="cc" />
        <path style="fill:none;stroke:#000000;stroke-width:7;stroke-linecap:round;stroke-linejoin:round" d="m 158.20043,194.86943 c 0,0 31.01938,-1.74332 36.4963,13.41784" id="path1500" />
        <path style="fill:none;stroke:#000000;stroke-width:7;stroke-linecap:round;stroke-linejoin:round" d="m 172.62996,174.80024 c 0,0 31.58521,-4.76413 48.80448,5.68985" id="path1502" sodipodi:nodetypes="cc" />
      </g>
      <path id="head" style="fill:#ffffff;stroke:#000000;stroke-width:28;stroke-linecap:round;stroke-linejoin:round" d="m 801.23204,518.83004 c 0,246.4004 -289.23204,246.4004 -289.23204,246.4004 0,0 -289.23203,0 -289.23203,-246.4004 0,-251.48127 289.23203,-251.48127 289.23203,-251.48127 0,0 289.23204,0 289.23204,251.48127 z" sodipodi:nodetypes="scscs" inkscape:label="head" />
      <g id="ears" transform="scale(4)">
        <path style="fill:#ffffff;stroke:#000000;stroke-width:7;stroke-linecap:round;stroke-linejoin:round" d="m 62.539013,114.85975 c 0,0 -22.645844,4.28315 -24.190357,-12.23129 -1.478021,-15.803478 -27.191625,-31.055892 -4.904971,-44.485516 7.067604,-4.258839 23.557476,-10.561801 62.177602,22.454077" id="path1268" sodipodi:nodetypes="cssc" />
        <path style="fill:#000000;stroke-width:7;stroke-linecap:round;stroke-linejoin:round" d="m 77.096481,97.294008 c -4.446496,8.558292 -23.743783,9.871092 -26.278073,-3.861728 -2.952471,-15.998863 -20.314217,-35.327504 9.571236,-21.114795 16.577569,7.883842 21.834127,15.10789 16.706837,24.976523 z" id="path1293" sodipodi:nodetypes="ssss" />
        <path style="fill:#ffffff;stroke:#000000;stroke-width:7;stroke-linecap:round;stroke-linejoin:round" d="m 193.46099,114.85975 c 0,0 22.64584,4.28315 24.19035,-12.23129 1.47802,-15.803479 27.19163,-31.055893 4.90497,-44.485517 -7.0676,-4.258839 -23.55747,-10.561801 -62.1776,22.454077" id="path626" sodipodi:nodetypes="cssc" />
        <path style="fill:#000000;stroke-width:7;stroke-linecap:round;stroke-linejoin:round" d="m 178.90352,97.294007 c 4.44649,8.558293 23.74378,9.871093 26.27807,-3.861728 2.95247,-15.998863 20.31422,-35.327504 -9.57123,-21.114795 -16.57757,7.883842 -21.83413,15.10789 -16.70684,24.976523 z" id="path628" sodipodi:nodetypes="ssss" />
      </g>
      <g id="muzzle" inkscape:label="muzzle" transform="scale(4)">
        <path id="mouth" style="fill:#ffffff;stroke:#000000;stroke-width:7;stroke-linecap:round;stroke-linejoin:round" class="UnoptimicedTransforms" transform="matrix(-1,0,0,1,256,0)" d="m 83.576929,169.12476 c 0,0 -5.831512,62.85119 44.423071,43.89834 50.25458,18.95285 44.42307,-43.89834 44.42307,-43.89834" sodipodi:nodetypes="ccc" inkscape:label="mouth" />
        <path id="nose" style="fill:#000000;stroke-width:0.999999;paint-order:stroke fill markers" d="m 110.17575,186.4324 c 0,-6.30688 8.64213,-8.03161 17.82425,-8.03161 9.18212,0 17.82425,1.72473 17.82425,8.03161 0,3.77935 -10.10027,12.8811 -17.82425,12.8811 -7.72398,0 -17.82425,-9.10175 -17.82425,-12.8811 z" sodipodi:nodetypes="scscs" inkscape:label="nose" />
        <g id="whisker-beds" inkscape:label="whisker-beds">
          <circle style="fill:#000000;stroke-width:7;stroke-linecap:round;stroke-linejoin:round" id="path1524" cx="100.76877" cy="181.42542" r="3.5" />
          <circle style="fill:#000000;stroke-width:7;stroke-linecap:round;stroke-linejoin:round" id="circle1526" cx="97.799568" cy="194.80849" r="3.5" />
          <circle style="fill:#000000;stroke-width:7;stroke-linecap:round;stroke-linejoin:round" id="circle1528" cx="109.45874" cy="202.81351" r="3.5" />
          <circle style="fill:#000000;stroke-width:7;stroke-linecap:round;stroke-linejoin:round" id="circle670" cx="-155.23123" cy="181.42542" r="3.5" transform="scale(-1,1)" />
          <circle style="fill:#000000;stroke-width:7;stroke-linecap:round;stroke-linejoin:round" id="circle672" cx="-158.20044" cy="194.80849" r="3.5" transform="scale(-1,1)" />
          <circle style="fill:#000000;stroke-width:7;stroke-linecap:round;stroke-linejoin:round" id="circle674" cx="-146.54126" cy="202.81351" r="3.5" transform="scale(-1,1)" />
        </g>
      </g>
      <path id="spots" style="fill:#000000;stroke-width:28;stroke-linecap:round;stroke-linejoin:round" inkscape:label="spots" d="m 663.03356,645.32316 c -10.05272,-5.5304 -3.9754,-11.69724 -19.9086,-4.1688 -15.93312,7.5284 -24.60904,6.532 -24.73632,2.11964 -0.1272,-4.4124 -16.12728,0.67364 -9.57184,9.30604 6.55544,8.63244 19.40556,-8.51 15.2206,2.45936 -4.18492,10.96936 12.92384,6.6548 15.95696,1.44652 3.00908,-5.16696 18.13988,13.5882 18.41124,8.87676 0.62568,-10.862 -8.25348,-18.13732 -16.58092,-16.07768 -8.32744,2.05964 4.7072,-6.76808 7.88464,-6.13552 3.1774,0.63252 1.09392,0.53412 5.7062,5.53184 4.61224,4.99772 10.89208,11.19592 9.65848,5.97652 -1.2336,-5.21944 1.47928,-7.39832 -2.04044,-9.33468 z m 92.2396,-63.70288 c -12.82068,-5.7546 -14.98936,-11.73148 -24.33428,-9.19184 -18.72504,5.08888 5.98588,7.51836 -2.4936,18.99144 -8.47948,11.47308 -16.24232,9.02132 -15.17092,18.74652 1.36884,12.4254 -24.85948,32.44372 -7.64808,29.27504 17.2114,-3.16868 20.93112,-36.33676 26.5022,-25.64588 5.57108,10.69092 16.0174,-2.67992 13.66544,-15.3182 -2.5718,-13.81936 17.4262,-13.29008 9.47924,-16.85708 z m 3.97336,-72.40264 c -14.10964,-2.76988 -6.88176,-19.6988 -17.1902,-6.96396 -6.14872,7.59596 -21.96476,15.86968 -15.36852,21.90736 6.59624,6.03772 21.60276,-12.37596 18.72252,-0.94904 -2.32744,9.23384 -25.60772,18.2848 -14.94484,16.45788 10.66288,-1.82696 21.49536,-0.67852 21.49536,9.49388 0,10.17244 12.62132,-0.92616 9.13704,-14.7942 -3.20644,-12.762 22.10632,-20.44876 -1.85136,-25.15192 z m -170.6218,-200.33611 c -14.32764,-3.22304 -5.10672,-9.51228 -22.18056,-5.99868 -15.43496,3.17636 -6.6394,-6.55708 -14.96664,-7.0792 -8.32728,-0.52216 -20.37808,11.1856 -12.95756,11.40348 7.42052,0.218 -7.89892,12.87744 5.87388,8.45412 13.7728,-4.42328 22.19844,16.18928 25.10716,6.88836 2.90872,-9.30088 10.98228,-8.39792 12.5892,-4.87632 2.95972,6.48624 8.24476,17.14664 14.41144,11.70316 6.16672,-5.44344 21.7076,-9.64888 11.61468,-10.92392 -20.49388,-2.58896 -10.74648,-7.60376 -19.4916,-9.571 z m 7.46012,52.94604 c 2.19036,9.77076 -4.44076,3.27172 -9.40504,4.97888 -7.30068,2.5106 -24.90572,2.72904 -13.37076,-4.82364 6.84556,-4.48224 22.38032,-10.8648 8.39424,-9.6672 -13.98604,1.19764 -12.96672,0.95884 -18.07836,3.81496 -5.11164,2.85608 1.43148,-3.54412 -5.90168,-10.1788 -7.33312,-6.63464 8.09936,-10.65812 19.4012,-8.04632 3.7898,0.87576 5.92104,6.51268 15.14108,4.6978 7.3386,-1.44456 15.94696,-0.65716 10.75844,6.12556 -5.18848,6.78276 -8.31804,6.9476 -6.93912,13.09876 z m -68.57192,-5.07396 c -2.47852,10.21684 -3.80024,14.463 -7.01172,13.34768 -3.21148,-1.11536 -8.35344,-3.23624 -5.21044,-10.69392 3.14304,-7.45768 10.42632,0.9208 6.89052,-6.82452 -3.5358,-7.74536 6.3688,-7.31168 1.06876,-10.60304 -5.30004,-3.2914 5.0552,-5.12684 -1.01204,-9.068 -6.06724,-3.94116 -10.238,-3.62972 -10.238,-3.62972 v -8.71088 c 0,0 8.36744,0.0888 9.20876,-1.5976 1.33076,-2.66756 11.97752,0.75244 12.03476,4.68152 0.0572,3.92916 1.33924,11.0402 4.75156,8.58564 3.41228,-2.45456 5.53148,7.65816 0.58836,15.591 -4.94312,7.93288 -8.592,-1.295 -11.07052,8.92184 z m 30.4898,19.04376 c -9.94376,16.68904 -3.15404,34.14591 -9.60848,29.96539 -6.62976,-4.29404 -1.9778,-13.16351 -12.64376,-11.47635 -10.66596,1.68712 -7.64436,-3.26368 -6.57828,-12.7968 1.06604,-9.53316 4.96164,-18.84192 7.55972,-13.91336 2.59804,4.92852 5.40028,14.6856 0.51836,16.13844 -4.88192,1.4528 0.6836,7.15172 4.95792,5.7714 4.27432,-1.38032 7.11508,-13.75268 4.56536,-12.34464 -5.9606,3.29164 -2.71552,-11.46604 3.32288,-9.65892 4.61736,1.38184 12.39336,0.784 7.90628,8.31484 z m -46.00272,21.34376 c 7.99296,0 6.96556,5.68795 18.49212,6.55303 4.43456,0.3328 0.1364,15.04884 -3.1434,10.08444 -3.27972,-4.9644 -4.49672,-9.62516 -9.92224,-7.86312 -4.0528,1.31624 -5.42648,1.32468 -5.42648,1.32468 m 0,80.1172 c 12.3968,0 19.2718,2.76192 13.0564,4.91584 -13.0564,4.5246 9.8214,4.45136 2.91592,8.7106 -4.70708,2.90328 -5.02744,20.02012 -9.486,11.67764 -2.54528,-4.76252 -6.48632,-4.68388 -6.48632,-4.68388 m 42.70436,-76.28804 c 13.74068,6.24516 6.6266,13.122 2.73752,23.09952 -8.37068,21.47516 6.97396,7.3782 5.80336,15.52684 -1.1706,8.14864 -20.04184,18.73416 -19.38768,4.93644 0.65412,-13.79776 -3.34448,-7.68564 -8.42028,-6.57132 -5.07584,1.11428 -18.92432,-2.3032 -13.92868,-10.5208 4.99568,-8.21756 1.70588,-42.59476 8.76916,-31.63332 7.06324,10.96148 8.4428,-2.10204 24.4266,5.16264 z m 28.06172,-50.88775 c 8.11844,9.9048 -3.3332,13.26508 2.67164,18.05344 4.21408,3.36035 3.72592,18.22423 -0.8306,13.74703 -4.55656,-4.47716 -5.67552,-4.07276 -10.12424,0.61528 -4.44876,4.68804 -18.224,-2.37224 -12.948,-8.79608 5.276,-6.42383 15.88624,-30.14075 21.2312,-23.61967 z m 55.567,34.10855 c 7.07952,-1.24072 8.89924,-0.57532 11.49296,-11.29208 2.59376,-10.71675 14.03956,-32.55423 3.29208,-32.90031 -10.74752,-0.346 -15.6376,-10.31624 -23.3218,-7.11952 -7.68416,3.19668 -19.47228,-2.67532 -17.97568,3.95388 2.38428,10.56148 -17.36588,19.87156 -5.60148,23.85284 9.0484,3.06212 -0.1824,23.53823 14.19628,9.34319 10.56632,-10.43131 12.75316,-29.61439 17.4654,-21.70615 4.7122,7.90824 -0.1644,13.52632 -5.0278,18.42596 -4.86324,4.89971 -4.57336,19.75231 5.48004,17.44219 z m -4.62876,30.16044 c -2.74652,-8.45804 14.84024,-1.01948 9.99648,-12.63352 -4.8438,-11.61404 30.98012,-11.49492 30.37024,-2.89936 -0.60988,8.5956 -0.47304,18.01464 7.60184,17.27276 8.07488,-0.74188 -12.79088,15.75736 -24.94632,13.9636 -11.08032,-1.63508 -20.17156,-6.92472 -23.02224,-15.70348 z m -21.78904,-24.93244 c 14.24944,18.87416 13.59924,37.11452 -0.3124,38.853 -13.9116,1.73848 -34.49176,19.94364 -32.88268,7.0046 1.60912,-12.93904 13.5436,-25.21976 3.80068,-30.20516 -9.74296,-4.98544 21.00092,-26.77004 29.3944,-15.65244 z m -250.94883,225.18484 c 10.05272,-5.5304 3.9754,-11.69724 19.90856,-4.1688 15.93316,7.5284 24.60907,6.532 24.73635,2.11964 0.1272,-4.4124 16.12728,0.67364 9.57184,9.30604 -6.55544,8.63244 -19.40555,-8.51 -15.22059,2.45936 4.18491,10.96936 -12.92384,6.6548 -15.95696,1.44652 -3.00908,-5.16696 -18.13988,13.5882 -18.41128,8.87676 -0.62568,-10.862 8.25352,-18.13732 16.58096,-16.07768 8.32744,2.05964 -4.7072,-6.76808 -7.88464,-6.13552 -3.1774,0.63252 -1.09392,0.53412 -5.7062,5.53184 -4.61228,4.99772 -10.89208,11.19592 -9.65852,5.97652 1.2336,-5.21944 -1.47928,-7.39832 2.04048,-9.33468 z m -92.23964,-63.70288 c 12.82072,-5.7546 14.9894,-11.73148 24.33432,-9.19184 18.72504,5.08888 -5.98588,7.51836 2.49356,18.99144 8.47948,11.47308 16.24232,9.02132 15.17096,18.74652 -1.36884,12.4254 24.85948,32.44372 7.64808,29.27504 -17.2114,-3.16868 -20.93112,-36.33676 -26.5022,-25.64588 -5.57112,10.69092 -16.0174,-2.67992 -13.66544,-15.3182 2.5718,-13.81936 -17.4262,-13.29008 -9.47928,-16.85708 z m -3.97332,-72.40264 c 14.1096,-2.76988 6.88176,-19.6988 17.1902,-6.96396 6.14872,7.59596 21.96476,15.86968 15.36852,21.90736 -6.59624,6.03772 -21.60276,-12.37596 -18.72256,-0.94904 2.32748,9.23384 25.60772,18.2848 14.94484,16.45788 -10.66288,-1.82696 -21.49532,-0.67852 -21.49532,9.49388 0,10.17244 -12.62132,-0.92616 -9.13704,-14.7942 3.20644,-12.762 -22.10636,-20.44876 1.85136,-25.15192 z m 170.62179,-200.33611 c 14.32764,-3.22304 5.10672,-9.51228 22.18056,-5.99868 15.43496,3.17636 6.6394,-6.55708 14.96664,-7.0792 8.32728,-0.52216 20.37808,11.1856 12.95756,11.40348 -7.42052,0.218 7.89892,12.87744 -5.87388,8.45412 -13.7728,-4.42328 -22.19844,16.18928 -25.10716,6.88836 -2.90872,-9.30088 -10.98228,-8.39792 -12.5892,-4.87632 -2.95972,6.48624 -8.24476,17.14664 -14.41144,11.70316 -6.16672,-5.44344 -21.7076,-9.64888 -11.61468,-10.92392 20.49388,-2.58896 10.74648,-7.60376 19.4916,-9.571 z m -7.46012,52.94604 c -2.19036,9.77076 4.44076,3.27172 9.40504,4.97888 7.30068,2.5106 24.90572,2.72904 13.37076,-4.82364 -6.84556,-4.48224 -22.38032,-10.8648 -8.39424,-9.6672 13.98604,1.19764 12.96672,0.95884 18.07836,3.81496 5.11164,2.85608 -1.43148,-3.54412 5.90168,-10.1788 7.33312,-6.63464 -8.09936,-10.65812 -19.4012,-8.04632 -3.7898,0.87576 -5.92104,6.51268 -15.14108,4.6978 -7.3386,-1.44456 -15.94696,-0.65716 -10.75844,6.12556 5.18848,6.78276 8.31804,6.9476 6.93912,13.09876 z m 68.57192,-5.07396 c 2.47852,10.21684 3.80024,14.463 7.01172,13.34768 3.21148,-1.11536 8.35344,-3.23624 5.21044,-10.69392 -3.14304,-7.45768 -10.42632,0.9208 -6.89052,-6.82452 3.5358,-7.74536 -6.3688,-7.31168 -1.06876,-10.60304 5.30004,-3.2914 -5.0552,-5.12684 1.01204,-9.068 6.06724,-3.94116 10.238,-3.62972 10.238,-3.62972 v -8.71088 c 0,0 -8.36744,0.0888 -9.20876,-1.5976 -1.33076,-2.66756 -11.97752,0.75244 -12.03476,4.68152 -0.0572,3.92916 -1.33924,11.0402 -4.75156,8.58564 -3.41228,-2.45456 -5.53148,7.65816 -0.58836,15.591 4.94312,7.93288 8.592,-1.295 11.07052,8.92184 z m -30.4898,19.04376 c 9.94376,16.68904 3.15404,34.14591 9.60848,29.96539 6.62976,-4.29404 1.9778,-13.16351 12.64376,-11.47635 10.66596,1.68712 7.64436,-3.26368 6.57828,-12.7968 -1.06604,-9.53316 -4.96164,-18.84192 -7.55972,-13.91336 -2.59804,4.92852 -5.40028,14.6856 -0.51836,16.13844 4.88192,1.4528 -0.6836,7.15172 -4.95792,5.7714 -4.27432,-1.38032 -7.11508,-13.75268 -4.56536,-12.34464 5.9606,3.29164 2.71552,-11.46604 -3.32288,-9.65892 -4.61736,1.38184 -12.39336,0.784 -7.90628,8.31484 z m 46.00272,21.34376 c -7.99296,0 -6.96556,5.68795 -18.49212,6.55303 -4.43456,0.3328 -0.1364,15.04884 3.1434,10.08444 3.27972,-4.9644 4.49672,-9.62516 9.92224,-7.86312 4.0528,1.31624 5.42648,1.32468 5.42648,1.32468 m 0,80.1172 c -12.3968,0 -19.2718,2.76192 -13.0564,4.91584 13.0564,4.5246 -9.8214,4.45136 -2.91592,8.7106 4.70708,2.90328 5.02744,20.02012 9.486,11.67764 2.54528,-4.76252 6.48632,-4.68388 6.48632,-4.68388 m -42.70436,-76.28804 c -13.74068,6.24516 -6.6266,13.122 -2.73752,23.09952 8.37068,21.47516 -6.97396,7.3782 -5.80336,15.52684 1.1706,8.14864 20.04184,18.73416 19.38768,4.93644 -0.65412,-13.79776 3.34448,-7.68564 8.42028,-6.57132 5.07584,1.11428 18.92432,-2.3032 13.92868,-10.5208 -4.99568,-8.21756 -1.70588,-42.59476 -8.76916,-31.63332 -7.06324,10.96148 -8.4428,-2.10204 -24.4266,5.16264 z m -28.06172,-50.88775 c -8.11844,9.9048 3.3332,13.26508 -2.67164,18.05344 -4.21408,3.36035 -3.72592,18.22423 0.8306,13.74703 4.55656,-4.47716 5.67552,-4.07276 10.12424,0.61528 4.44876,4.68804 18.224,-2.37224 12.948,-8.79608 -5.276,-6.42383 -15.88624,-30.14075 -21.2312,-23.61967 z m -55.56699,34.10855 c -7.07952,-1.24072 -8.89924,-0.57532 -11.49296,-11.29208 -2.59376,-10.71675 -14.0396,-32.55423 -3.29208,-32.90031 10.74752,-0.346 15.6376,-10.31624 23.3218,-7.11952 7.68415,3.19668 19.47227,-2.67532 17.97567,3.95388 -2.38428,10.56148 17.36588,19.87156 5.60148,23.85284 -9.0484,3.06212 0.1824,23.53823 -14.19628,9.34319 -10.56631,-10.43131 -12.75315,-29.61439 -17.46539,-21.70615 -4.71224,7.90824 0.1644,13.52632 5.0278,18.42596 4.86324,4.89971 4.57336,19.75231 -5.48004,17.44219 z m 4.62876,30.16044 c 2.74652,-8.45804 -14.84024,-1.01948 -9.99648,-12.63352 4.8438,-11.61404 -30.98012,-11.49492 -30.37024,-2.89936 0.60988,8.5956 0.47304,18.01464 -7.60184,17.27276 -8.07488,-0.74188 12.79088,15.75736 24.94632,13.9636 11.08032,-1.63508 20.17156,-6.92472 23.02224,-15.70348 z m 21.78903,-24.93244 c -14.24943,18.87416 -13.59923,37.11452 0.3124,38.853 13.9116,1.73848 34.49176,19.94364 32.88268,7.0046 -1.60912,-12.93904 -13.5436,-25.21976 -3.80068,-30.20516 9.74296,-4.98544 -21.00092,-26.77004 -29.3944,-15.65244 z" sodipodi:insensitive="true" />
      <g id="eyes" transform="scale(4)">
        <path id="path1458" style="fill:none;stroke:#000000;stroke-width:7;stroke-linecap:round;stroke-linejoin:round" d="m 85.680033,123.04582 c -14.291339,46.21442 32.328067,13.03179 34.536147,39.03312 0,0 1.95553,-25.58688 -8.81303,-34.92915 -10.17555,-8.8278 -33.761931,3.28059 -33.985232,-13.24178" sodipodi:nodetypes="ccsc" />
        <path id="path1466" style="fill:#000000;stroke-width:6.99998;stroke-linecap:round;stroke-linejoin:round" d="m 103.58925,136.93332 c 0,-4.30239 -3.45215,-7.62905 -3.45215,-7.62905 0,0 -3.452157,3.32666 -3.452157,7.62905 0,4.3024 3.452157,7.62906 3.452157,7.62906 0,0 3.45215,-3.32666 3.45215,-7.62906 z" sodipodi:nodetypes="scscs" />
        <path id="path533" style="fill:none;stroke:#000000;stroke-width:7;stroke-linecap:round;stroke-linejoin:round" d="m 170.45878,123.04581 c 14.29134,46.21442 -32.32807,13.03179 -34.53615,39.03312 0,0 -1.95553,-25.58688 8.81303,-34.92915 10.17555,-8.8278 33.76193,3.28059 33.98523,-13.24178" sodipodi:nodetypes="ccsc" />
        <path id="path535" style="fill:#000000;stroke-width:6.99998;stroke-linecap:round;stroke-linejoin:round" d="m 152.54956,136.93331 c 0,-4.30239 3.45215,-7.62905 3.45215,-7.62905 0,0 3.45216,3.32666 3.45216,7.62905 0,4.3024 -3.45216,7.62906 -3.45216,7.62906 0,0 -3.45215,-3.32666 -3.45215,-7.62906 z" sodipodi:nodetypes="scscs" />
      </g>
    </g>
  </g>
  <metadata id="metadata3851">
    <rdf:RDF>
      <cc:Work rdf:about="">
        <cc:license rdf:resource="http://creativecommons.org/licenses/by-sa/4.0/" />
        <dc:title>Leomard macOS Icon</dc:title>
        <dc:date>2023-07-09</dc:date>
        <dc:creator>
          <cc:Agent>
            <dc:title>vintprox</dc:title>
          </cc:Agent>
        </dc:creator>
      </cc:Work>
      <cc:License rdf:about="http://creativecommons.org/licenses/by-sa/4.0/">
        <cc:permits rdf:resource="http://creativecommons.org/ns#Reproduction" />
        <cc:permits rdf:resource="http://creativecommons.org/ns#Distribution" />
        <cc:requires rdf:resource="http://creativecommons.org/ns#Notice" />
        <cc:requires rdf:resource="http://creativecommons.org/ns#Attribution" />
        <cc:permits rdf:resource="http://creativecommons.org/ns#DerivativeWorks" />
        <cc:requires rdf:resource="http://creativecommons.org/ns#ShareAlike" />
      </cc:License>
    </rdf:RDF>
  </metadata>
</svg>
