<?xml version="1.0" encoding="UTF-8" standalone="no"?>
<!-- Created with Inkscape (http://www.inkscape.org/) -->

<svg width="256" height="256" viewBox="0 0 256 256" version="1.1" id="svg12" inkscape:version="1.2 (dc2aeda, 2022-05-15)" xml:space="preserve" sodipodi:docname="leomard_stamp.inkscape.svg" inkscape:export-filename="leomard_stamp.png" inkscape:export-xdpi="96" inkscape:export-ydpi="96" xmlns:inkscape="http://www.inkscape.org/namespaces/inkscape" xmlns:sodipodi="http://sodipodi.sourceforge.net/DTD/sodipodi-0.dtd" xmlns="http://www.w3.org/2000/svg" xmlns:svg="http://www.w3.org/2000/svg" xmlns:rdf="http://www.w3.org/1999/02/22-rdf-syntax-ns#" xmlns:cc="http://creativecommons.org/ns#" xmlns:dc="http://purl.org/dc/elements/1.1/"><title id="title3842">Leomard Logo Stamp</title><sodipodi:namedview id="namedview14" pagecolor="#505050" bordercolor="#ffffff" borderopacity="1" inkscape:pageshadow="0" inkscape:pageopacity="0" inkscape:pagecheckerboard="1" inkscape:deskcolor="#505050" inkscape:document-units="px" showgrid="false" inkscape:showpageshadow="0" showguides="true" inkscape:current-layer="layer1" /><defs id="defs9" /><g inkscape:groupmode="layer" id="layer1" inkscape:label="Layer 1"><path id="stamp" style="color:#000000;fill:#ffffff;stroke-width:7;stroke-linecap:round;stroke-linejoin:round" inkscape:label="stamp" d="M 46.042969 51.203125 C 39.334063 51.236965 34.569718 53.377148 31.636719 55.144531 C 25.559413 58.806634 22.095842 63.129437 21.166016 67.863281 C 20.236189 72.597131 21.796425 77.047855 23.869141 81.091797 C 28.014566 89.17968 34.289788 96.823058 34.863281 102.95508 C 35.324556 107.88712 37.560161 111.75186 40.558594 114.21289 C 43.557026 116.67392 47.1223 117.82412 50.4375 118.38672 C 51.299537 118.53301 52.149924 118.63589 52.982422 118.71094 C 52.4713 122.16786 52.191406 125.82516 52.191406 129.70703 C 52.191406 147.54771 58.179123 160.68304 66.71875 170.22852 C 66.269687 170.22871 65.842911 170.21961 65.384766 170.22461 C 55.03851 170.34375 42.372652 171.65601 32.75 177.49805 C 31.097299 178.5011 30.570841 180.65413 31.574219 182.30664 C 32.577261 183.95935 34.730316 184.48581 36.382812 183.48242 C 43.979311 178.87055 55.713818 177.3369 65.464844 177.22461 C 68.886349 177.18521 71.859995 177.31921 74.521484 177.48633 C 76.331209 178.8996 78.183691 180.22256 80.082031 181.41406 C 80.323424 184.76245 80.800219 188.51264 81.650391 192.34766 C 81.434414 192.38286 81.226833 192.40586 81.009766 192.44336 C 76.555063 193.21365 71.840771 194.47366 67.664062 196.70898 C 63.48736 198.94437 59.746905 202.2943 58.011719 207.09766 C 57.355185 208.91517 58.295972 210.92097 60.113281 211.57812 C 61.931404 212.23595 63.938524 211.29493 64.595703 209.47656 C 65.598957 206.69941 67.78899 204.58267 70.96875 202.88086 C 74.14851 201.17904 78.216471 200.03082 82.201172 199.3418 C 82.66557 199.2615 83.116778 199.20733 83.576172 199.13867 C 83.603602 199.21577 83.624534 199.29415 83.652344 199.37109 C 86.251956 206.56203 90.72593 213.54598 98.304688 217.29688 C 105.63225 220.92342 115.48264 221.12834 128 216.66602 C 140.51736 221.12834 150.36775 220.92342 157.69531 217.29688 C 165.27405 213.54598 169.74802 206.56203 172.34766 199.37109 C 172.37546 199.29419 172.39633 199.21572 172.42383 199.13867 C 172.88322 199.20737 173.33443 199.26149 173.79883 199.3418 C 177.78349 200.03082 181.85147 201.17904 185.03125 202.88086 C 188.21103 204.58267 190.40104 206.69941 191.4043 209.47656 C 192.06148 211.29492 194.06859 212.23595 195.88672 211.57812 C 197.70404 210.92097 198.64481 208.91517 197.98828 207.09766 C 196.25308 202.2943 192.51261 198.94437 188.33594 196.70898 C 184.15921 194.47366 179.44496 193.21365 174.99023 192.44336 C 174.77316 192.40586 174.56559 192.38286 174.34961 192.34766 C 175.19978 188.51264 175.67658 184.76245 175.91797 181.41406 C 177.81632 180.22256 179.66879 178.8996 181.47852 177.48633 C 184.13997 177.31921 187.11363 177.18521 190.53516 177.22461 C 200.28618 177.3369 212.02071 178.87055 219.61719 183.48242 C 221.2697 184.4858 223.42273 183.95935 224.42578 182.30664 C 225.42916 180.65413 224.90271 178.5011 223.25 177.49805 C 213.62735 171.65601 200.96149 170.34375 190.61523 170.22461 C 190.15708 170.21961 189.73031 170.22852 189.28125 170.22852 C 197.82087 160.68304 203.80859 147.54771 203.80859 129.70703 C 203.80859 125.82516 203.5287 122.16786 203.01758 118.71094 C 203.85008 118.63594 204.70046 118.53301 205.5625 118.38672 C 208.87772 117.82412 212.44296 116.67392 215.44141 114.21289 C 218.4398 111.75186 220.67544 107.88712 221.13672 102.95508 C 221.71022 96.823058 227.9854 89.179681 232.13086 81.091797 C 234.20359 77.047855 235.76382 72.597132 234.83398 67.863281 C 233.90421 63.129437 230.44062 58.806634 224.36328 55.144531 C 221.43027 53.377148 216.66591 51.236962 209.95703 51.203125 C 207.72072 51.191845 205.26871 51.414099 202.5957 51.962891 C 193.36996 53.857016 181.49823 59.395893 165.8418 71.623047 C 165.7441 71.580087 165.64652 71.528797 165.54883 71.486328 C 146.68956 63.287449 128 63.337891 128 63.337891 C 128 63.337891 109.31045 63.287451 90.451172 71.486328 C 90.353482 71.528798 90.255923 71.580088 90.158203 71.623047 C 74.501748 59.395893 62.630046 53.857016 53.404297 51.962891 C 50.73131 51.414099 48.279271 51.191846 46.042969 51.203125 z M 45.871094 67.371094 C 48.399925 67.307714 52.917344 68.765202 60.388672 72.318359 C 76.966156 80.202161 82.222968 87.426339 77.095703 97.294922 C 72.649232 105.85317 53.352639 107.16441 50.818359 93.431641 C 48.60402 81.432553 38.284592 67.561234 45.871094 67.371094 z M 210.12891 67.371094 C 217.71539 67.561234 207.39599 81.432553 205.18164 93.431641 C 202.64735 107.16441 183.35074 105.85317 178.9043 97.294922 C 173.77701 87.426339 179.03381 80.202161 195.61133 72.318359 C 203.08264 68.765202 207.60006 67.307714 210.12891 67.371094 z M 118.13086 73.951172 C 120.21268 73.820639 123.22427 76.74826 121.36914 76.802734 C 119.51401 76.857204 123.34554 80.021837 119.90234 78.916016 C 116.45915 77.810194 114.35218 82.961938 113.625 80.636719 C 112.89782 78.311499 110.87829 78.537576 110.47656 79.417969 C 109.73663 81.039533 108.41667 83.704613 106.875 82.34375 C 105.33332 80.982887 101.44748 79.932036 103.9707 79.613281 C 109.09417 78.966042 106.65747 77.712513 108.84375 77.220703 C 112.42566 76.414941 110.12022 74.842301 114.38867 75.720703 C 118.24741 76.514788 116.04905 74.081704 118.13086 73.951172 z M 137.86914 73.951172 C 139.95095 74.081704 137.75259 76.514788 141.61133 75.720703 C 145.87978 74.842301 143.57434 76.414941 147.15625 77.220703 C 149.34253 77.712513 146.90583 78.966042 152.0293 79.613281 C 154.55252 79.932036 150.66668 80.982887 149.125 82.34375 C 147.58333 83.704613 146.26337 81.039533 145.52344 79.417969 C 145.12171 78.537576 143.10218 78.311499 142.375 80.636719 C 141.64782 82.961938 139.54085 77.810194 136.09766 78.916016 C 132.65446 80.021837 136.48599 76.857204 134.63086 76.802734 C 132.77573 76.74826 135.78732 73.820639 137.86914 73.951172 z M 125.08984 79.505859 C 125.38639 79.504137 125.61409 79.577418 125.69727 79.744141 C 125.9076 80.165744 128 80.142578 128 80.142578 C 128 80.142578 130.0924 80.165744 130.30273 79.744141 C 130.63542 79.077248 133.29624 79.931784 133.31055 80.914062 C 133.32485 81.896344 133.64497 83.674186 134.49805 83.060547 C 135.35112 82.446908 135.88226 84.973817 134.64648 86.957031 C 133.41071 88.940244 132.49854 86.633292 131.87891 89.1875 C 131.25928 91.741707 130.92787 92.804221 130.125 92.525391 C 129.32213 92.246559 128.03652 91.715983 128.82227 89.851562 C 129.60802 87.987142 131.42887 90.082815 130.54492 88.146484 C 129.66097 86.210154 132.13751 86.316983 130.8125 85.494141 C 129.48749 84.671297 132.0754 84.213802 130.55859 83.228516 C 129.04179 82.243231 128 82.320312 128 82.320312 C 128 82.320313 126.95821 82.243231 125.44141 83.228516 C 123.9246 84.213802 126.51251 84.671297 125.1875 85.494141 C 123.86249 86.316983 126.33903 86.210154 125.45508 88.146484 C 124.57113 90.082815 126.39198 87.987142 127.17773 89.851562 C 127.96348 91.715983 126.67787 92.246559 125.875 92.525391 C 125.07213 92.804221 124.74072 91.741707 124.12109 89.1875 C 123.50146 86.633292 122.58929 88.940244 121.35352 86.957031 C 120.11774 84.973817 120.64888 82.446908 121.50195 83.060547 C 122.35503 83.674186 122.67515 81.896344 122.68945 80.914062 C 122.70019 80.177354 124.20022 79.511026 125.08984 79.505859 z M 113.92578 84.28125 C 116.11693 84.366439 117.94332 85.244285 116.56836 86.488281 C 114.73507 88.146942 116.37166 89.747225 115.09375 89.033203 C 113.81584 88.319181 114.07073 88.377531 110.57422 88.078125 C 107.0777 87.77872 110.96049 89.375534 112.67188 90.496094 C 115.55561 92.384268 111.15525 92.328824 109.33008 91.701172 C 108.08901 91.27438 106.43093 92.899719 106.97852 90.457031 C 107.32325 88.919243 106.54126 88.877326 105.24414 87.181641 C 103.94701 85.485955 106.09895 85.289252 107.93359 85.650391 C 110.2386 86.104118 110.7713 84.695511 111.71875 84.476562 C 112.42511 84.313326 113.1954 84.252854 113.92578 84.28125 z M 142.07422 84.28125 C 142.8046 84.252854 143.57489 84.313326 144.28125 84.476562 C 145.2287 84.695511 145.7614 86.104118 148.06641 85.650391 C 149.90105 85.289252 152.05299 85.485955 150.75586 87.181641 C 149.45874 88.877326 148.67675 88.919243 149.02148 90.457031 C 149.56907 92.899719 147.91099 91.27438 146.66992 91.701172 C 144.84475 92.328824 140.44439 92.384268 143.32812 90.496094 C 145.03951 89.375534 148.9223 87.77872 145.42578 88.078125 C 141.92927 88.377531 142.18416 88.319181 140.90625 89.033203 C 139.62834 89.747225 141.26493 88.146942 139.43164 86.488281 C 138.05668 85.244285 139.88307 84.366439 142.07422 84.28125 z M 97.859375 90.742188 C 98.081901 90.750346 98.310651 90.800494 98.550781 90.900391 C 100.47182 91.699566 103.41907 90.231379 103.04492 91.888672 C 102.44885 94.529043 107.38641 96.856244 104.44531 97.851562 C 102.18321 98.617095 104.49115 103.73626 100.89648 100.1875 C 98.254909 97.579677 97.707354 92.78271 96.529297 94.759766 C 95.35124 96.736823 96.571301 98.142278 97.787109 99.367188 C 99.002915 100.59211 98.929362 104.30605 96.416016 103.72852 C 94.646136 103.41834 94.191401 103.58348 93.542969 100.9043 C 92.894537 98.225114 90.033829 92.7662 92.720703 92.679688 C 95.071718 92.603991 96.301692 90.685075 97.859375 90.742188 z M 158.14062 90.742188 C 159.69831 90.685075 160.92828 92.603991 163.2793 92.679688 C 165.96616 92.7662 163.10547 98.225114 162.45703 100.9043 C 161.8086 103.58348 161.35386 103.41834 159.58398 103.72852 C 157.07064 104.30605 156.99708 100.59211 158.21289 99.367188 C 159.42874 98.142278 160.64875 96.736823 159.4707 94.759766 C 158.29264 92.78271 157.74509 97.579677 155.10352 100.1875 C 151.50885 103.73626 153.81679 98.617095 151.55469 97.851562 C 148.61359 96.856244 153.55115 94.529043 152.95508 91.888672 C 152.58093 90.231379 155.52818 91.699566 157.44922 90.900391 C 157.68935 90.800494 157.9181 90.750346 158.14062 90.742188 z M 122.34961 91.582031 C 122.91003 91.828464 123.50715 93.585584 123.70703 95.373047 C 123.97355 97.756329 124.72899 98.994049 122.0625 98.572266 C 119.39601 98.150483 120.55978 100.3679 118.90234 101.44141 C 117.28874 102.48654 118.98594 98.121474 116.5 93.949219 C 115.37823 92.066517 117.32222 92.216554 118.47656 91.871094 C 119.98616 91.419312 120.79679 95.108062 119.30664 94.285156 C 118.66921 93.933149 119.37869 97.026015 120.44727 97.371094 C 121.51584 97.716171 122.90798 96.290939 121.6875 95.927734 C 120.46702 95.56453 121.1669 93.126662 121.81641 91.894531 C 121.97879 91.586499 122.1628 91.499887 122.34961 91.582031 z M 133.65039 91.582031 C 133.8372 91.499887 134.02121 91.586499 134.18359 91.894531 C 134.8331 93.126662 135.53298 95.56453 134.3125 95.927734 C 133.09202 96.290939 134.48416 97.716171 135.55273 97.371094 C 136.62131 97.026015 137.33079 93.933149 136.69336 94.285156 C 135.20321 95.108062 136.01384 91.419312 137.52344 91.871094 C 138.67778 92.216554 140.62177 92.066517 139.5 93.949219 C 137.01406 98.121474 138.71126 102.48654 137.09766 101.44141 C 135.44022 100.3679 136.60399 98.150483 133.9375 98.572266 C 131.27101 98.994049 132.02645 97.756329 132.29297 95.373047 C 132.49285 93.585584 133.08997 91.828464 133.65039 91.582031 z M 110.86523 94.919922 C 112.28616 94.984618 114.46306 99.700255 115.61719 101.10547 C 116.93619 102.71143 113.4911 104.4767 112.37891 103.30469 C 111.26673 102.13268 110.9868 102.0311 109.84766 103.15039 C 108.70853 104.26969 108.58711 100.55298 109.64062 99.712891 C 111.14183 98.515806 108.27899 97.677369 110.30859 95.201172 C 110.47562 94.997389 110.66225 94.91068 110.86523 94.919922 z M 145.13477 94.919922 C 145.33775 94.91068 145.52438 94.997389 145.69141 95.201172 C 147.72101 97.677369 144.85817 98.515806 146.35938 99.712891 C 147.41289 100.55298 147.29147 104.26969 146.15234 103.15039 C 145.0132 102.0311 144.73327 102.13268 143.62109 103.30469 C 142.5089 104.4767 139.06381 102.71143 140.38281 101.10547 C 141.53694 99.700255 143.71384 94.984618 145.13477 94.919922 z M 128 99.285156 C 129.99824 99.285156 129.74141 100.70756 132.62305 100.92383 C 133.73169 101.00703 132.65784 104.68641 131.83789 103.44531 C 131.01796 102.20421 130.7138 101.03801 129.35742 101.47852 C 128.34422 101.80758 128 101.81055 128 101.81055 C 128 101.81055 127.65578 101.80758 126.64258 101.47852 C 125.2862 101.03801 124.98204 102.20421 124.16211 103.44531 C 123.34216 104.68641 122.26831 101.00703 123.37695 100.92383 C 126.25859 100.70756 126.00176 99.285156 128 99.285156 z M 104.6875 104.25586 C 107.64617 104.1489 112.34818 107.9346 110.36914 108.94727 C 107.93341 110.19361 110.91803 113.26329 111.32031 116.49805 C 111.72258 119.7328 106.57751 115.18267 103.09961 114.74805 C 99.621699 114.31343 99.459125 109.75369 103.02148 105.03516 C 103.41493 104.51402 104.00473 104.28054 104.6875 104.25586 z M 151.3125 104.25586 C 151.99527 104.28054 152.58507 104.51402 152.97852 105.03516 C 156.54087 109.75369 156.3783 114.31343 152.90039 114.74805 C 149.42249 115.18267 144.27742 119.7328 144.67969 116.49805 C 145.08197 113.26329 148.06659 110.19361 145.63086 108.94727 C 143.65182 107.9346 148.35383 104.1489 151.3125 104.25586 z M 91.675781 105.85156 C 93.744348 105.93844 95.679692 106.65762 95.074219 108.10938 C 93.863273 111.01288 98.260852 109.15307 97.574219 111.26758 C 96.861551 113.46227 94.588437 114.78459 91.818359 115.19336 C 88.779502 115.6418 83.563315 111.51766 85.582031 111.70312 C 87.600751 111.88859 87.634892 109.53366 87.482422 107.38477 C 87.406187 106.31032 89.607214 105.76468 91.675781 105.85156 z M 164.32422 105.85156 C 166.39278 105.76468 168.59381 106.31032 168.51758 107.38477 C 168.36511 109.53366 168.39925 111.88859 170.41797 111.70312 C 172.43669 111.51766 167.2205 115.6418 164.18164 115.19336 C 161.41156 114.78459 159.13845 113.46227 158.42578 111.26758 C 157.73915 109.15307 162.13672 111.01288 160.92578 108.10938 C 160.32031 106.65762 162.25565 105.93844 164.32422 105.85156 z M 123.98047 106.09961 C 125.02308 105.93687 124.53024 112.74343 125.62305 114.54102 C 126.87196 116.59541 123.40958 117.44849 122.14062 117.16992 C 120.87168 116.89134 119.87163 115.36306 120.03516 118.8125 C 120.1987 122.26193 115.4821 119.61528 115.18945 117.57812 C 114.8968 115.54097 118.73134 119.06605 116.63867 113.69727 C 115.6664 111.20289 113.88905 109.48316 117.32422 107.92188 C 121.32016 106.10571 121.66388 109.37123 123.42969 106.63086 C 123.65041 106.28831 123.83152 106.12286 123.98047 106.09961 z M 132.01953 106.09961 C 132.16848 106.12286 132.34959 106.28831 132.57031 106.63086 C 134.33612 109.37123 134.67984 106.10571 138.67578 107.92188 C 142.11095 109.48316 140.3336 111.20289 139.36133 113.69727 C 137.26866 119.06605 141.1032 115.54097 140.81055 117.57812 C 140.5179 119.61528 135.8013 122.26193 135.96484 118.8125 C 136.12837 115.36306 135.12832 116.89134 133.85938 117.16992 C 132.59042 117.44849 129.12804 116.59541 130.37695 114.54102 C 131.46976 112.74343 130.97692 105.93687 132.01953 106.09961 z M 77.371094 110.4082 C 79.304156 110.38214 80.892259 111.92826 80.917969 113.86133 C 80.962465 117.15361 81.662599 117.85765 83.083984 118.64258 C 84.505373 119.4275 87.309638 119.84832 90.748047 119.91602 C 97.624861 120.0514 107.00005 118.69572 113.69727 124.50586 C 120.35544 130.28216 122.42736 139.79087 123.32617 147.72266 C 124.22498 155.65441 123.70508 162.3457 123.70508 162.3457 C 123.36713 166.62753 117.10242 166.65385 116.72852 162.375 C 116.49909 159.67345 115.78134 158.17165 114.875 157.13281 C 113.96866 156.09397 112.7187 155.38793 110.92188 154.87695 C 107.32817 153.85501 101.88725 154.02048 96.509766 153.63281 C 91.132271 153.24515 85.094466 152.10792 81.777344 146.85352 C 78.814637 142.16049 78.801038 135.38152 81.431641 125.50977 C 80.849475 125.2842 80.261733 125.08017 79.699219 124.76953 C 76.317388 122.902 73.985119 118.92392 73.917969 113.95508 C 73.891904 112.02201 75.438027 110.4339 77.371094 110.4082 z M 178.76758 110.4082 C 180.70065 110.43392 182.2468 112.02201 182.2207 113.95508 C 182.15355 118.92392 179.82129 122.902 176.43945 124.76953 C 175.87694 125.08017 175.2892 125.2842 174.70703 125.50977 C 177.33764 135.38152 177.32404 142.16049 174.36133 146.85352 C 171.04419 152.10792 165.00639 153.24515 159.62891 153.63281 C 154.2514 154.02048 148.81047 153.85501 145.2168 154.87695 C 143.41994 155.38793 142.17001 156.09397 141.26367 157.13281 C 140.35734 158.17165 139.63958 159.67345 139.41016 162.375 C 139.03632 166.65393 132.77147 166.62761 132.43359 162.3457 C 132.43359 162.3457 131.91369 155.65441 132.8125 147.72266 C 133.71131 139.79087 135.7832 130.28216 142.44141 124.50586 C 149.13859 118.69572 158.51382 120.04944 165.39062 119.91406 C 168.82904 119.84637 171.6333 119.4275 173.05469 118.64258 C 174.47608 117.85765 175.1762 117.15361 175.2207 113.86133 C 175.24641 111.92826 176.83451 110.3821 178.76758 110.4082 z M 128 121.83984 C 131.0992 121.83984 132.81752 122.52988 131.26367 123.06836 C 127.99958 124.19951 133.71856 124.18128 131.99219 125.24609 C 130.81542 125.97191 130.73573 130.25163 129.62109 128.16602 C 128.98477 126.97539 128 126.99414 128 126.99414 C 128 126.99414 127.01523 126.97539 126.37891 128.16602 C 125.26427 130.25163 125.18458 125.97191 124.00781 125.24609 C 122.28144 124.18128 128.00042 124.19951 124.73633 123.06836 C 123.18248 122.52988 124.9008 121.83984 128 121.83984 z M 69.222656 124.39453 C 69.470775 124.43465 69.84205 124.76657 70.486328 125.5625 C 72.023502 127.46149 75.977183 129.5316 74.328125 131.04102 C 72.679067 132.55044 68.926431 127.94601 69.646484 130.80273 C 70.228345 133.11119 76.04853 135.3747 73.382812 134.91797 C 70.717095 134.46123 68.009766 134.74792 68.009766 137.29102 C 68.009766 139.83412 64.853533 137.0588 65.724609 133.5918 C 66.526215 130.4013 60.198082 128.48048 66.1875 127.30469 C 68.833052 126.78534 68.478299 124.27418 69.222656 124.39453 z M 186.77734 124.39453 C 187.5217 124.27418 187.16695 126.78534 189.8125 127.30469 C 195.80191 128.48048 189.47378 130.4013 190.27539 133.5918 C 191.14646 137.0588 187.99023 139.83412 187.99023 137.29102 C 187.99023 134.74792 185.2829 134.46123 182.61719 134.91797 C 179.95147 135.3747 185.77166 133.11119 186.35352 130.80273 C 187.07357 127.94601 183.32093 132.55044 181.67188 131.04102 C 180.02282 129.5316 183.97649 127.46149 185.51367 125.5625 C 186.15795 124.76657 186.52923 124.43465 186.77734 124.39453 z M 100.13672 129.30469 C 100.13672 129.30469 96.685547 132.63123 96.685547 136.93359 C 96.685547 141.23599 100.13672 144.5625 100.13672 144.5625 C 100.13672 144.5625 103.58984 141.23599 103.58984 136.93359 C 103.58984 132.63123 100.13672 129.30469 100.13672 129.30469 z M 156.00195 129.30469 C 156.00195 129.30469 152.54883 132.63123 152.54883 136.93359 C 152.54883 141.23599 156.00195 144.5625 156.00195 144.5625 C 156.00195 144.5625 159.45313 141.23599 159.45312 136.93359 C 159.45312 132.63123 156.00195 129.30469 156.00195 129.30469 z M 72.464844 142.96484 C 72.709513 142.98194 72.973597 143.02806 73.265625 143.10742 C 77.94688 144.37964 71.768805 144.9872 73.888672 147.85547 C 76.008539 150.72374 77.949484 150.10972 77.681641 152.54102 C 77.33943 155.64736 83.896593 160.6535 79.59375 159.86133 C 75.290907 159.06916 74.361524 150.7765 72.96875 153.44922 C 71.575977 156.12195 68.962785 152.77871 69.550781 149.61914 C 70.193728 146.1643 65.194906 146.29605 67.181641 145.4043 C 69.986165 144.14548 70.752161 142.84518 72.464844 142.96484 z M 183.53516 142.96484 C 185.24784 142.84518 186.01384 144.14548 188.81836 145.4043 C 190.8051 146.29605 185.80627 146.1643 186.44922 149.61914 C 187.03721 152.77871 184.42402 156.12195 183.03125 153.44922 C 181.63848 150.7765 180.7091 159.06916 176.40625 159.86133 C 172.1034 160.6535 178.66057 155.64736 178.31836 152.54102 C 178.05051 150.10972 179.99146 150.72374 182.11133 147.85547 C 184.2312 144.9872 178.05312 144.37964 182.73438 143.10742 C 183.0264 143.02806 183.29049 142.98194 183.53516 142.96484 z M 92.556641 159.42578 C 93.005592 159.35757 93.725017 159.58327 95.21875 160.28906 C 99.202032 162.17116 101.37052 161.92145 101.40234 160.81836 C 101.43414 159.71526 105.43378 160.98643 103.79492 163.14453 C 102.15606 165.30264 98.943995 161.01743 99.990234 163.75977 C 101.03646 166.5021 96.760239 165.42316 96.001953 164.12109 C 95.249688 162.82936 91.466285 167.5177 91.398438 166.33984 C 91.242019 163.62435 93.461109 161.8054 95.542969 162.32031 C 97.62483 162.83522 94.366622 160.62897 93.572266 160.78711 C 92.777909 160.94524 93.299552 160.92049 92.146484 162.16992 C 90.993418 163.41935 89.424023 164.96891 89.732422 163.66406 C 90.040821 162.3592 89.362257 161.81417 90.242188 161.33008 C 91.812927 160.46595 91.808388 159.53947 92.556641 159.42578 z M 163.44336 159.42578 C 164.19161 159.53947 164.18708 160.46595 165.75781 161.33008 C 166.63774 161.81417 165.95918 162.3592 166.26758 163.66406 C 166.57598 164.96891 165.00657 163.41935 163.85352 162.16992 C 162.70045 160.92049 163.22208 160.94524 162.42773 160.78711 C 161.63338 160.62897 158.37517 162.83522 160.45703 162.32031 C 162.53889 161.8054 164.75798 163.62435 164.60156 166.33984 C 164.53372 167.5177 160.75032 162.82936 159.99805 164.12109 C 159.23977 165.42316 154.96354 166.5021 156.00977 163.75977 C 157.056 161.01743 153.84394 165.30264 152.20508 163.14453 C 150.56622 160.98643 154.56586 159.71526 154.59766 160.81836 C 154.62948 161.92145 156.79797 162.17116 160.78125 160.28906 C 162.27499 159.58327 162.99441 159.35757 163.44336 159.42578 z M 100.76953 177.92578 A 3.5 3.5 0 0 1 104.26953 181.42578 A 3.5 3.5 0 0 1 100.76953 184.92578 A 3.5 3.5 0 0 1 97.269531 181.42578 A 3.5 3.5 0 0 1 100.76953 177.92578 z M 155.23047 177.92578 A 3.5 3.5 0 0 1 158.73047 181.42578 A 3.5 3.5 0 0 1 155.23047 184.92578 A 3.5 3.5 0 0 1 151.73047 181.42578 A 3.5 3.5 0 0 1 155.23047 177.92578 z M 128 178.40039 C 137.18208 178.40039 145.82422 180.1248 145.82422 186.43164 C 145.82422 190.21099 135.72394 199.31445 128 199.31445 C 120.27606 199.31445 110.17578 190.21099 110.17578 186.43164 C 110.17578 180.1248 118.81792 178.40039 128 178.40039 z M 97.798828 191.30859 A 3.5 3.5 0 0 1 101.29883 194.80859 A 3.5 3.5 0 0 1 97.798828 198.30859 A 3.5 3.5 0 0 1 94.298828 194.80859 A 3.5 3.5 0 0 1 97.798828 191.30859 z M 158.20117 191.30859 A 3.5 3.5 0 0 1 161.70117 194.80859 A 3.5 3.5 0 0 1 158.20117 198.30859 A 3.5 3.5 0 0 1 154.70117 194.80859 A 3.5 3.5 0 0 1 158.20117 191.30859 z M 109.45898 199.31445 A 3.5 3.5 0 0 1 112.95898 202.81445 A 3.5 3.5 0 0 1 109.45898 206.31445 A 3.5 3.5 0 0 1 105.95898 202.81445 A 3.5 3.5 0 0 1 109.45898 199.31445 z M 146.54102 199.31445 A 3.5 3.5 0 0 1 150.04102 202.81445 A 3.5 3.5 0 0 1 146.54102 206.31445 A 3.5 3.5 0 0 1 143.04102 202.81445 A 3.5 3.5 0 0 1 146.54102 199.31445 z " /></g><metadata id="metadata3840"><rdf:RDF><cc:License rdf:about="http://creativecommons.org/licenses/by-sa/4.0/"><cc:permits rdf:resource="http://creativecommons.org/ns#Reproduction" /><cc:permits rdf:resource="http://creativecommons.org/ns#Distribution" /><cc:requires rdf:resource="http://creativecommons.org/ns#Notice" /><cc:requires rdf:resource="http://creativecommons.org/ns#Attribution" /><cc:permits rdf:resource="http://creativecommons.org/ns#DerivativeWorks" /><cc:requires rdf:resource="http://creativecommons.org/ns#ShareAlike" /></cc:License><cc:Work rdf:about=""><cc:license rdf:resource="http://creativecommons.org/licenses/by-sa/4.0/" /><dc:title>Leomard Logo Stamp</dc:title><dc:date>2023-07-09</dc:date><dc:creator><cc:Agent><dc:title>vintprox</dc:title></cc:Agent></dc:creator></cc:Work></rdf:RDF></metadata></svg>
