<?xml version="1.0" encoding="UTF-8"?>
<svg id="svg12" version="1.1" viewBox="0 0 256 256" xmlns="http://www.w3.org/2000/svg" xmlns:cc="http://creativecommons.org/ns#" xmlns:dc="http://purl.org/dc/elements/1.1/" xmlns:rdf="http://www.w3.org/1999/02/22-rdf-syntax-ns#">
	<title id="title3842">Leomard Logo Stamp</title>
	<g id="layer1">
		<path id="stamp" d="m46.042969 51.203125c-6.708906 0.03384-11.473251 2.174023-14.40625 3.941406-6.077306 3.662103-9.540877 7.984906-10.470703 12.71875-0.929827 4.73385 0.630409 9.184574 2.703125 13.228516 4.145425 8.087883 10.420647 15.731261 10.99414 21.863283 0.461275 4.93204 2.69688 8.79678 5.695313 11.25781 2.998432 2.46103 6.563706 3.61123 9.878906 4.17383 0.862037 0.14629 1.712424 0.24917 2.544922 0.32422-0.511122 3.45692-0.791016 7.11422-0.791016 10.99609 0 17.84068 5.987717 30.97601 14.527344 40.52149-0.449063 1.9e-4 -0.875839-0.00891-1.333984-0.00391-10.346256 0.11914-23.012114 1.4314-32.634766 7.27344-1.652701 1.00305-2.179159 3.15608-1.175781 4.80859 1.003042 1.65271 3.156097 2.17917 4.808593 1.17578 7.596499-4.61187 19.331006-6.14552 29.082032-6.25781 3.421505-0.0394 6.395151 0.0946 9.05664 0.26172 1.809725 1.41327 3.662207 2.73623 5.560547 3.92773 0.241393 3.34839 0.718188 7.09858 1.56836 10.9336-0.215977 0.0352-0.423558 0.0582-0.640625 0.0957-4.454703 0.77029-9.168995 2.0303-13.345704 4.26562-4.176702 2.23539-7.917157 5.58532-9.652343 10.38868-0.656534 1.81751 0.284253 3.82331 2.101562 4.48046 1.818123 0.65783 3.825243-0.28319 4.482422-2.10156 1.003254-2.77715 3.193287-4.89389 6.373047-6.5957 3.17976-1.70182 7.247721-2.85004 11.232422-3.53906 0.464398-0.0803 0.915606-0.13447 1.375-0.20313 0.02743 0.0771 0.048362 0.15548 0.076172 0.23242 2.599612 7.19094 7.073586 14.17489 14.652344 17.92579 7.327562 3.62654 17.177952 3.83146 29.695312-0.63086 12.51736 4.46232 22.36775 4.2574 29.69531 0.63086 7.57874-3.7509 12.05271-10.73485 14.65235-17.92579 0.0278-0.0769 0.04867-0.15537 0.07617-0.23242 0.45939 0.0687 0.9106 0.12282 1.375 0.20313 3.98466 0.68902 8.05264 1.83724 11.23242 3.53906 3.17978 1.70181 5.36979 3.81855 6.37305 6.5957 0.65718 1.81836 2.66429 2.75939 4.48242 2.10156 1.81732-0.65715 2.75809-2.66295 2.10156-4.48046-1.7352-4.80336-5.47567-8.15329-9.65234-10.38868-4.17673-2.23532-8.89098-3.49533-13.34571-4.26562-0.21707-0.0375-0.42464-0.0605-0.64062-0.0957 0.85017-3.83502 1.32697-7.58521 1.56836-10.9336 1.89835-1.1915 3.75082-2.51446 5.56055-3.92773 2.66145-0.16712 5.63511-0.30112 9.05664-0.26172 9.75102 0.11229 21.48555 1.64594 29.08203 6.25781 1.65251 1.00338 3.80554 0.47693 4.80859-1.17578 1.00338-1.65251 0.47693-3.80554-1.17578-4.80859-9.62265-5.84204-22.28851-7.1543-32.63477-7.27344-0.45815-5e-3 -0.88492 0.00391-1.33398 0.00391 8.53962-9.54548 14.52734-22.68081 14.52734-40.52149 0-3.88187-0.27989-7.53917-0.79101-10.99609 0.8325-0.075 1.68288-0.17793 2.54492-0.32422 3.31522-0.5626 6.88046-1.7128 9.87891-4.17383 2.99839-2.46103 5.23403-6.32577 5.69531-11.25781 0.5735-6.132022 6.84868-13.775399 10.99414-21.863283 2.07273-4.043942 3.63296-8.494665 2.70312-13.228516-0.92977-4.733844-4.39336-9.056647-10.4707-12.71875-2.93301-1.767383-7.69737-3.907569-14.40625-3.941406-2.23631-0.01128-4.68832 0.210974-7.36133 0.759766-9.22574 1.894125-21.09747 7.433002-36.7539 19.660156-0.0977-0.04296-0.19528-0.09425-0.29297-0.136719-18.85927-8.198879-37.54883-8.148437-37.54883-8.148437s-18.68955-0.05044-37.548828 8.148437c-0.09769 0.04247-0.195249 0.09376-0.292969 0.136719-15.656455-12.227154-27.528157-17.766031-36.753906-19.660156-2.672987-0.548792-5.125026-0.771045-7.361328-0.759766zm-0.171875 16.167969c2.528831-0.06338 7.04625 1.394108 14.517578 4.947265 16.577484 7.883802 21.834296 15.10798 16.707031 24.976563-4.446471 8.558248-23.743064 9.869488-26.277344-3.863281-2.214339-11.999088-12.533767-25.870407-4.947265-26.060547zm164.257816 0c7.58648 0.19014-2.73292 14.061459-4.94727 26.060547-2.53429 13.732769-21.8309 12.421529-26.27734 3.863281-5.12729-9.868583 0.12951-17.092761 16.70703-24.976563 7.47131-3.553157 11.98873-5.010645 14.51758-4.947265zm-91.99805 6.580078c2.08182-0.130533 5.09341 2.797088 3.23828 2.851562-1.85513 0.05447 1.9764 3.219103-1.4668 2.113282-3.44319-1.105822-5.55016 4.045922-6.27734 1.720703-0.72718-2.32522-2.74671-2.099143-3.14844-1.21875-0.73993 1.621564-2.05989 4.286644-3.60156 2.925781-1.54168-1.360863-5.42752-2.411714-2.9043-2.730469 5.12347-0.647239 2.68677-1.900768 4.87305-2.392578 3.58191-0.805762 1.27647-2.378402 5.54492-1.5 3.85874 0.794085 1.66038-1.638999 3.74219-1.769531zm19.73828 0c2.08181 0.130532-0.11655 2.563616 3.74219 1.769531 4.26845-0.878402 1.96301 0.694238 5.54492 1.5 2.18628 0.49181-0.25042 1.745339 4.87305 2.392578 2.52322 0.318755-1.36262 1.369606-2.9043 2.730469-1.54167 1.360863-2.86163-1.304217-3.60156-2.925781-0.40173-0.880393-2.42126-1.10647-3.14844 1.21875-0.72718 2.325219-2.83415-2.826525-6.27734-1.720703-3.4432 1.105821 0.38833-2.058812-1.4668-2.113282-1.85513-0.054474 1.15646-2.982095 3.23828-2.851562zm-12.7793 5.554687c0.29655-0.001722 0.52425 0.071559 0.60743 0.238282 0.21033 0.421603 2.30273 0.398437 2.30273 0.398437s2.0924 0.023166 2.30273-0.398437c0.33269-0.666893 2.99351 0.187643 3.00782 1.169921 0.0143 0.982282 0.33442 2.760124 1.1875 2.146485 0.85307-0.613639 1.38421 1.91327 0.14843 3.896484-1.23577 1.983213-2.14794-0.323739-2.76757 2.230469-0.61963 2.554207-0.95104 3.616721-1.75391 3.337891-0.80287-0.278832-2.08848-0.809408-1.30273-2.673829 0.78575-1.86442 2.6066 0.231253 1.72265-1.705078-0.88395-1.93633 1.59259-1.829501 0.26758-2.652343-1.32501-0.822844 1.2629-1.280339-0.25391-2.265625-1.5168-0.985285-2.55859-0.908204-2.55859-0.908204 0 1e-6 -1.04179-0.077081-2.55859 0.908204-1.51681 0.985286 1.0711 1.442781-0.25391 2.265625-1.32501 0.822842 1.15153 0.716013 0.26758 2.652343-0.88395 1.936331 0.9369-0.159342 1.72265 1.705078 0.78575 1.864421-0.49986 2.394997-1.30273 2.673829-0.80287 0.27883-1.13428-0.783684-1.75391-3.337891-0.61963-2.554208-1.5318-0.247256-2.76757-2.230469-1.23578-1.983214-0.70464-4.510123 0.14843-3.896484 0.85308 0.613639 1.1732-1.164203 1.1875-2.146485 0.01074-0.736708 1.51077-1.403036 2.40039-1.408203zm-11.16406 4.775391c2.19115 0.085189 4.01754 0.963035 2.64258 2.207031-1.83329 1.658661-0.1967 3.258944-1.47461 2.544922s-1.02302-0.655672-4.51953-0.955078c-3.49652-0.299405 0.38627 1.297409 2.09766 2.417969 2.88373 1.888174-1.51663 1.83273-3.3418 1.205078-1.24107-0.426792-2.89915 1.198547-2.35156-1.244141 0.34473-1.537788-0.43726-1.579705-1.73438-3.27539-1.29713-1.695686 0.85481-1.892389 2.68945-1.53125 2.30501 0.453727 2.83771-0.95488 3.78516-1.173829 0.70636-0.163236 1.47665-0.223708 2.20703-0.195312zm28.14844 0c0.73038-0.028396 1.50067 0.032076 2.20703 0.195312 0.94745 0.218949 1.48015 1.627556 3.78516 1.173829 1.83464-0.361139 3.98658-0.164436 2.68945 1.53125-1.29712 1.695685-2.07911 1.737602-1.73438 3.27539 0.54759 2.442688-1.11049 0.817349-2.35156 1.244141-1.82517 0.627652-6.22553 0.683096-3.3418-1.205078 1.71139-1.12056 5.59418-2.717374 2.09766-2.417969-3.49651 0.299406-3.24162 0.241056-4.51953 0.955078s0.35868-0.886261-1.47461-2.544922c-1.37496-1.243996 0.45143-2.121842 2.64258-2.207031zm-44.214845 6.460938c0.222526 0.008158 0.451276 0.058306 0.691406 0.158203 1.921039 0.799175 4.868289-0.669012 4.494139 0.988281-0.59607 2.640371 4.34149 4.967572 1.40039 5.96289-2.2621 0.765533 0.04584 5.884698-3.54883 2.335938-2.641571-2.607823-3.189126-7.40479-4.367183-5.427734-1.178057 1.977057 0.042004 3.382512 1.257812 4.607422 1.215806 1.224922 1.142253 4.938862-1.371093 4.361332-1.76988-0.31018-2.224615-0.14504-2.873047-2.82422-0.648432-2.679186-3.50914-8.1381-0.822266-8.224612 2.351015-0.075697 3.580989-1.994613 5.138672-1.9375zm60.281245 0c1.55769-0.057113 2.78766 1.861803 5.13868 1.9375 2.68686 0.086512-0.17383 5.545426-0.82227 8.224612-0.64843 2.67918-1.10317 2.51404-2.87305 2.82422-2.51334 0.57753-2.5869-3.13641-1.37109-4.361332 1.21585-1.22491 2.43586-2.630365 1.25781-4.607422-1.17806-1.977056-1.72561 2.819911-4.36718 5.427734-3.59467 3.54876-1.28673-1.570405-3.54883-2.335938-2.9411-0.995318 1.99646-3.322519 1.40039-5.96289-0.37415-1.657293 2.5731-0.189106 4.49414-0.988281 0.24013-0.099897 0.46888-0.150045 0.6914-0.158203zm-35.79101 0.839843c0.56042 0.246433 1.15754 2.003553 1.35742 3.791016 0.26652 2.383282 1.02196 3.621002-1.64453 3.199219s-1.50272 1.795634-3.16016 2.869144c-1.6136 1.04513 0.0836-3.319936-2.40234-7.492191-1.12177-1.882702 0.82222-1.732665 1.97656-2.078125 1.5096-0.451782 2.32023 3.236968 0.83008 2.414062-0.63743-0.352007 0.07205 2.740859 1.14063 3.085938 1.06857 0.345077 2.46071-1.080155 1.24023-1.44336-1.22048-0.363204-0.5206-2.801072 0.12891-4.033203 0.16238-0.308032 0.34639-0.394644 0.5332-0.3125zm11.30078 0c0.18681-0.082144 0.37082 0.004468 0.5332 0.3125 0.64951 1.232131 1.34939 3.669999 0.12891 4.033203-1.22048 0.363205 0.17166 1.788437 1.24023 1.44336 1.06858-0.345079 1.77806-3.437945 1.14063-3.085938-1.49015 0.822906-0.67952-2.865844 0.83008-2.414062 1.15434 0.34546 3.09833 0.195423 1.97656 2.078125-2.48594 4.172255-0.78874 8.537321-2.40234 7.492191-1.65744-1.07351-0.49367-3.290927-3.16016-2.869144s-1.91105-0.815937-1.64453-3.199219c0.19988-1.787463 0.797-3.544583 1.35742-3.791016zm-22.78516 3.337891c1.42093 0.064696 3.59783 4.780333 4.75196 6.185548 1.319 1.60596-2.12609 3.37123-3.23828 2.19922-1.11218-1.17201-1.39211-1.27359-2.53125-0.1543-1.13913 1.1193-1.26055-2.59741-0.20704-3.437499 1.50121-1.197085-1.36163-2.035522 0.66797-4.511719 0.16703-0.203783 0.35366-0.290492 0.55664-0.28125zm34.26954 0c0.20298-0.009242 0.38961 0.077467 0.55664 0.28125 2.0296 2.476197-0.83324 3.314634 0.66797 4.511719 1.05351 0.840089 0.93209 4.556799-0.20704 3.437499-1.13914-1.11929-1.41907-1.01771-2.53125 0.1543-1.11219 1.17201-4.55728-0.59326-3.23828-2.19922 1.15413-1.405215 3.33103-6.120852 4.75196-6.185548zm-17.13477 4.365234c1.99824 0 1.74141 1.422404 4.62305 1.638674 1.10864 0.0832 0.03479 3.76258-0.78516 2.52148-0.81993-1.2411-1.12409-2.4073-2.48047-1.96679-1.0132 0.32906-1.35742 0.33203-1.35742 0.33203s-0.34422-0.00297-1.35742-0.33203c-1.35638-0.44051-1.66054 0.72569-2.48047 1.96679-0.81995 1.2411-1.8938-2.43828-0.78516-2.52148 2.88164-0.21627 2.62481-1.638674 4.62305-1.638674zm-23.3125 4.970704c2.95867-0.10696 7.66068 3.67874 5.68164 4.69141-2.43573 1.24634 0.54889 4.31602 0.95117 7.55078 0.40227 3.23475-4.7428-1.31538-8.2207-1.75-3.477911-0.43462-3.640485-4.99436-0.07813-9.71289 0.39345-0.52114 0.98325-0.75462 1.66602-0.7793zm46.625 0c0.68277 0.02468 1.27257 0.25816 1.66602 0.7793 3.56235 4.71853 3.39978 9.27827-0.07813 9.71289-3.4779 0.43462-8.62297 4.98475-8.2207 1.75 0.40228-3.23476 3.3869-6.30444 0.95117-7.55078-1.97904-1.01267 2.72297-4.79837 5.68164-4.69141zm-59.636719 1.5957c2.068567 0.08688 4.003911 0.80606 3.398438 2.25782-1.210946 2.9035 3.186633 1.04369 2.5 3.1582-0.712668 2.19469-2.985782 3.51701-5.75586 3.92578-3.038857 0.44844-8.255044-3.6757-6.236328-3.49024 2.01872 0.18547 2.052861-2.16946 1.900391-4.31835-0.076235-1.07445 2.124792-1.62009 4.193359-1.53321zm72.648439 0c2.06856-0.08688 4.26959 0.45876 4.19336 1.53321-0.15247 2.14889-0.11833 4.50382 1.90039 4.31835 2.01872-0.18546-3.19747 3.93868-6.23633 3.49024-2.77008-0.40877-5.04319-1.73109-5.75586-3.92578-0.68663-2.11451 3.71094-0.2547 2.5-3.1582-0.60547-1.45176 1.32987-2.17094 3.39844-2.25782zm-40.34375 0.24805c1.04261-0.16274 0.54977 6.64382 1.64258 8.44141 1.24891 2.05439-2.21347 2.90747-3.48243 2.6289-1.26894-0.27858-2.26899-1.80686-2.10546 1.64258 0.16354 3.44943-4.55306 0.80278-4.84571-1.23438-0.29265-2.03715 3.54189 1.48793 1.44922-3.88085-0.97227-2.49438-2.74962-4.21411 0.68555-5.77539 3.99594-1.81617 4.33966 1.44935 6.10547-1.29102 0.22072-0.34255 0.40183-0.508 0.55078-0.53125zm8.03906 0c0.14895 0.02325 0.33006 0.1887 0.55078 0.53125 1.76581 2.74037 2.10953-0.52515 6.10547 1.29102 3.43517 1.56128 1.65782 3.28101 0.68555 5.77539-2.09267 5.36878 1.74187 1.8437 1.44922 3.88085-0.29265 2.03716-5.00925 4.68381-4.84571 1.23438 0.16353-3.44944-0.83652-1.92116-2.10546-1.64258-1.26896 0.27857-4.73134-0.57451-3.48243-2.6289 1.09281-1.79759 0.59997-8.60415 1.64258-8.44141zm-54.648436 4.30859c1.933062-0.02606 3.521165 1.52006 3.546875 3.45313 0.044496 3.29228 0.74463 3.99632 2.166015 4.78125 1.421389 0.78492 4.225654 1.20574 7.664063 1.27344 6.876814 0.13538 16.252003-1.2203 22.949223 4.58984 6.65817 5.7763 8.73009 15.28501 9.6289 23.2168 0.89881 7.93175 0.37891 14.62304 0.37891 14.62304-0.33795 4.28183-6.60266 4.30815-6.97656 0.0293-0.22943-2.70155-0.94718-4.20335-1.85352-5.24219s-2.1563-1.74488-3.95312-2.25586c-3.59371-1.02194-9.03463-0.85647-14.412114-1.24414-5.377495-0.38766-11.4153-1.52489-14.732422-6.77929-2.962707-4.69303-2.976306-11.472-0.345703-21.34375-0.582166-0.22557-1.169908-0.4296-1.732422-0.74024-3.381831-1.86753-5.7141-5.84561-5.78125-10.81445-0.026065-1.93307 1.520058-3.52118 3.453125-3.54688zm101.396486 0c1.93307 0.02572 3.47922 1.61381 3.45312 3.54688-0.06715 4.96884-2.39941 8.94692-5.78125 10.81445-0.56251 0.31064-1.15025 0.51467-1.73242 0.74024 2.63061 9.87175 2.61701 16.65072-0.3457 21.34375-3.31714 5.2544-9.35494 6.39163-14.73242 6.77929-5.37751 0.38767-10.81844 0.2222-14.41211 1.24414-1.79686 0.51098-3.04679 1.21702-3.95313 2.25586-0.90633 1.03884-1.62409 2.54064-1.85351 5.24219-0.37384 4.27893-6.63869 4.25261-6.97657-0.0293 0 0-0.5199-6.69129 0.37891-14.62304 0.89881-7.93179 2.9707-17.4405 9.62891-23.2168 6.69718-5.81014 16.07241-4.45642 22.94921-4.5918 3.43842-0.06769 6.24268-0.48656 7.66407-1.27148 1.42139-0.78493 2.12151-1.48897 2.16601-4.78125 0.02571-1.93307 1.61381-3.47923 3.54688-3.45313zm-50.76758 11.43164c3.0992 0 4.81752 0.69004 3.26367 1.22852-3.26409 1.13115 2.45489 1.11292 0.72852 2.17773-1.17677 0.72582-1.25646 5.00554-2.3711 2.91993-0.63632-1.19063-1.62109-1.17188-1.62109-1.17188s-0.98477-0.01875-1.62109 1.17188c-1.11464 2.08561-1.19433-2.19411-2.3711-2.91993-1.72637-1.06481 3.99261-1.04658 0.72852-2.17773-1.55385-0.53848 0.16447-1.22852 3.26367-1.22852zm-58.777344 2.55469c0.248119 0.04012 0.619394 0.37204 1.263672 1.16797 1.537174 1.89899 5.490855 3.9691 3.841797 5.47852s-5.401694-3.09501-4.681641-0.23829c0.581861 2.30846 6.402046 4.57197 3.736328 4.11524-2.665717-0.45674-5.373046-0.17005-5.373046 2.37305s-3.156233-0.23222-2.285157-3.69922c0.801606-3.1905-5.526527-5.11132 0.462891-6.28711 2.645552-0.51935 2.290799-3.03051 3.035156-2.91016zm117.554684 0c0.74436-0.12035 0.38961 2.39081 3.03516 2.91016 5.98941 1.17579-0.33872 3.09661 0.46289 6.28711 0.87107 3.467-2.28516 6.24232-2.28516 3.69922s-2.70733-2.82979-5.37304-2.37305c-2.66572 0.45673 3.15447-1.80678 3.73633-4.11524 0.72005-2.85672-3.03259 1.74771-4.68164 0.23829-1.64906-1.50942 2.30461-3.57953 3.84179-5.47852 0.64428-0.79593 1.01556-1.12785 1.26367-1.16797zm-86.64062 4.91016s-3.451173 3.32654-3.451173 7.6289c0 4.3024 3.451173 7.62891 3.451173 7.62891s3.45312-3.32651 3.45312-7.62891c0-4.30236-3.45312-7.6289-3.45312-7.6289zm55.86523 0s-3.45312 3.32654-3.45312 7.6289c0 4.3024 3.45312 7.62891 3.45312 7.62891s3.45118-3.32651 3.45117-7.62891c0-4.30236-3.45117-7.6289-3.45117-7.6289zm-83.537106 13.66015c0.244669 0.0171 0.508753 0.06322 0.800781 0.14258 4.681255 1.27222-1.49682 1.87978 0.623047 4.74805s4.060812 2.25425 3.792969 4.68555c-0.342211 3.10634 6.214952 8.11248 1.912109 7.32031s-5.232226-9.08483-6.625-6.41211c-1.392773 2.67273-4.005965-0.67051-3.417969-3.83008 0.642947-3.45484-4.355875-3.32309-2.36914-4.21484 2.804524-1.25882 3.57052-2.55912 5.283203-2.43946zm111.070316 0c1.71268-0.11966 2.47868 1.18064 5.2832 2.43946 1.98674 0.89175-3.01209 0.76-2.36914 4.21484 0.58799 3.15957-2.0252 6.50281-3.41797 3.83008-1.39277-2.67272-2.32215 5.61994-6.625 6.41211s2.25432-4.21397 1.91211-7.32031c-0.26785-2.4313 1.6731-1.81728 3.79297-4.68555s-4.05821-3.47583 0.62305-4.74805c0.29202-0.07936 0.55611-0.12548 0.80078-0.14258zm-90.978519 16.46094c0.448951-0.06821 1.168376 0.15749 2.662109 0.86328 3.983282 1.8821 6.15177 1.63239 6.18359 0.5293 0.0318-1.1031 4.03144 0.16807 2.39258 2.32617-1.63886 2.15811-4.850925-2.1271-3.804686 0.61524 1.046226 2.74233-3.229995 1.66339-3.988281 0.36132-0.752265-1.29173-4.535668 3.39661-4.603515 2.21875-0.156419-2.71549 2.062671-4.53444 4.144531-4.01953 2.081861 0.51491-1.176347-1.69134-1.970703-1.5332-0.794357 0.15813-0.272714 0.13338-1.425782 1.38281-1.153066 1.24943-2.722461 2.79899-2.414062 1.49414 0.308399-1.30486-0.370165-1.84989 0.509766-2.33398 1.570739-0.86413 1.5662-1.79061 2.314453-1.9043zm70.886719 0c0.74825 0.11369 0.74372 1.04017 2.31445 1.9043 0.87993 0.48409 0.20137 1.02912 0.50977 2.33398 0.3084 1.30485-1.26101-0.24471-2.41406-1.49414-1.15307-1.24943-0.63144-1.22468-1.42579-1.38281-0.79435-0.15814-4.05256 2.04811-1.9707 1.5332s4.30095 1.30404 4.14453 4.01953c-0.06784 1.17786-3.85124-3.51048-4.60351-2.21875-0.75828 1.30207-5.03451 2.38101-3.98828-0.36132 1.04623-2.74234-2.16583 1.54287-3.80469-0.61524-1.63886-2.1581 2.36078-3.42927 2.39258-2.32617 0.03182 1.10309 2.20031 1.3528 6.18359-0.5293 1.49374-0.70579 2.21316-0.93149 2.66211-0.86328zm-62.67383 18.5a3.5 3.5 0 0 1 3.5 3.5 3.5 3.5 0 0 1-3.5 3.5 3.5 3.5 0 0 1-3.499999-3.5 3.5 3.5 0 0 1 3.499999-3.5zm54.46094 0a3.5 3.5 0 0 1 3.5 3.5 3.5 3.5 0 0 1-3.5 3.5 3.5 3.5 0 0 1-3.5-3.5 3.5 3.5 0 0 1 3.5-3.5zm-27.23047 0.47461c9.18208 0 17.82422 1.72441 17.82422 8.03125 0 3.77935-10.10028 12.88281-17.82422 12.88281s-17.82422-9.10346-17.82422-12.88281c0-6.30684 8.64214-8.03125 17.82422-8.03125zm-30.201172 12.9082a3.5 3.5 0 0 1 3.500002 3.5 3.5 3.5 0 0 1-3.500002 3.5 3.5 3.5 0 0 1-3.5-3.5 3.5 3.5 0 0 1 3.5-3.5zm60.402342 0a3.5 3.5 0 0 1 3.5 3.5 3.5 3.5 0 0 1-3.5 3.5 3.5 3.5 0 0 1-3.5-3.5 3.5 3.5 0 0 1 3.5-3.5zm-48.74219 8.00586a3.5 3.5 0 0 1 3.5 3.5 3.5 3.5 0 0 1-3.5 3.5 3.5 3.5 0 0 1-3.5-3.5 3.5 3.5 0 0 1 3.5-3.5zm37.08204 0a3.5 3.5 0 0 1 3.5 3.5 3.5 3.5 0 0 1-3.5 3.5 3.5 3.5 0 0 1-3.5-3.5 3.5 3.5 0 0 1 3.5-3.5z" color="#000000" fill="#ffffff" stroke-linecap="round" stroke-linejoin="round" stroke-width="7"/>
	</g>
	<metadata id="metadata3840">
		<rdf:RDF>
			<cc:Work rdf:about="">
				<cc:license rdf:resource="http://creativecommons.org/licenses/by-sa/4.0/"/>
				<dc:title>Leomard Logo Stamp</dc:title>
				<dc:date>2023-07-09</dc:date>
				<dc:creator>
					<cc:Agent>
						<dc:title>vintprox</dc:title>
					</cc:Agent>
				</dc:creator>
			</cc:Work>
			<cc:License rdf:about="http://creativecommons.org/licenses/by-sa/4.0/">
				<cc:permits rdf:resource="http://creativecommons.org/ns#Reproduction"/>
				<cc:permits rdf:resource="http://creativecommons.org/ns#Distribution"/>
				<cc:requires rdf:resource="http://creativecommons.org/ns#Notice"/>
				<cc:requires rdf:resource="http://creativecommons.org/ns#Attribution"/>
				<cc:permits rdf:resource="http://creativecommons.org/ns#DerivativeWorks"/>
				<cc:requires rdf:resource="http://creativecommons.org/ns#ShareAlike"/>
			</cc:License>
		</rdf:RDF>
	</metadata>
</svg>
